<?xml version="1.0" encoding="UTF-8"?>
<svg id="Layer_1" data-name="Layer 1" xmlns="http://www.w3.org/2000/svg" viewBox="0 0 200 150">
  <path d="M107.58,92.57h-8.77l-7.78-11.64-.57-.63h-5.19v12.01s-.24.26-.26.26h-7.58v-35.25h17.46c11.67-.12,16.07,14.39,7.31,21.45-.44.35-2.47,1.41-2.47,1.79l7.84,12.01ZM85.1,74.35h10.47c.21,0,1.34-.46,1.61-.61,3.37-1.84,3.43-6.69.24-8.73-.27-.17-1.62-.71-1.85-.71h-10.47v10.05Z"/>
  <path d="M127.81,57.37c11.48-1.02,20.98,6.93,20.31,18.77-.92,16.11-22.03,22.27-32.19,10.38-9.23-10.81-2.3-27.89,11.88-29.15ZM122.62,82.63c4.73,4.94,13.27,3.8,16.38-2.32,4.33-8.52-3.09-18.83-12.61-15.51-7.21,2.52-8.86,12.51-3.77,17.83Z"/>
  <polygon points="161.56 57.32 161.56 71.11 176.38 71.11 176.38 57.32 184.04 57.32 184.04 92.57 176.38 92.57 176.38 78.95 161.56 78.95 161.56 92.57 153.73 92.57 153.73 57.32 161.56 57.32"/>
  <path d="M42.86,57.32l-12.43,26.4h6.3l-4.09,8.86H15.96l.13-.63,16.12-33.43c.15-.42.97-1.19,1.37-1.19h9.28Z"/>
  <rect x="62.62" y="57.32" width="7.66" height="35.25"/>
  <path d="M55.3,92.57h-9.96l-6.31-12.94c-.31-.71-2.41-.15-2.63-.35l4.93-10.48c.34-.39,2.38-.41,2.72.03.53.68,1.41,2.83,1.87,3.75,2.95,5.98,6.28,12.44,8.91,18.51.2.46.46.97.48,1.48Z"/>
  <path d="M46.39,57.36c1.15-.26,2.53.07,2.86,1.32.87,3.27-4.29,3.89-4.19.6.02-.73.56-1.75,1.33-1.92ZM48.43,60.67c1.68-1.67-.78-4.26-2.51-2.59s.9,4.18,2.51,2.59Z"/>
  <path d="M48.14,60.38c-.41.37-.88-.67-.94-.68-.81-.26,0,.97-.94.69v-2.22c.49.05,1.38-.18,1.72.24.5.63-.2,1.1-.16,1.35.02.14.48.47.31.62ZM47.63,58.68h-.85v.51h.85v-.51Z"/>
</svg>