<?xml version="1.0" encoding="UTF-8"?>
<svg id="Layer_1" data-name="Layer 1" xmlns="http://www.w3.org/2000/svg" viewBox="0 0 200 150">
  <defs>
    <style>
      .cls-1 {
        fill: #f40009;
      }
    </style>
  </defs>
  <path class="cls-1" d="M159.26,95.4s-.55.48-.55.48c-.78.69-1.58,1.44-2.54,1.07-.27-.1-.45-.45-.5-.73-.04-1.99.85-3.83,1.72-5.62l.22-.47c2.5-4.17,5.4-9.08,9.66-12.49.72-.52,1.5-.95,2.32-.61.19.18.41.48.41.79,0,.1-.09.36-.14.44-1.19,1.92-2.32,3.94-3.43,5.88-2.15,3.83-4.39,7.79-7.18,11.26h0ZM136.17,85.58c-.16.11-3.04-.86-3.6-3.52-.47-2.3,1.11-4.09,2.64-4.99.66-.52,1.64-.69,2.37-.44.67.45.86,1.26.86,2.13,0,.53-.07,1.08-.13,1.58v.11c-.49,1.79-1.23,3.55-2.13,5.12h0ZM125.17,96.42c-.29-.44-.39-.91-.4-1.43-.06-3.17,3.35-8.84,5.76-11.93h0c1.01,2.21,3.29,3.63,4.67,4.22-1.71,3.81-7.58,11.98-10.03,9.14h0ZM166.72,96.98c-.57.39-1.37.09-1.07-.8.75-2.26,3.71-6.87,3.71-6.87l8.26-14.64h-5.66c-.27.44-.84,1.46-.84,1.46-.26-.44-1.04-1.4-1.37-1.61-1.38-.87-3.41-.46-4.81.33-6.08,3.56-10.52,10.58-14.01,16.06,0,0-3.68,6.09-5.73,6.54-1.6.13-1.43-2.02-1.36-2.52.62-3.62,2.05-7.06,3.49-10.18,2.94-2.04,6.29-4.7,9.33-7.63,6.61-6.32,12.18-13.48,13-15.08,0,0-.88.18-1.92.21-5.08,7.09-15.49,17.4-18.64,18.94,1.4-3.36,10.43-19.4,18.11-27.08l1.21-1.16c1.87-1.83,3.81-3.7,5.32-4.01.16-.02.36,0,.54.37.07,1.42-.46,2.47-1.07,3.67l-.85,1.75s1.21-.23,2-.49c.92-1.73,1.94-3.67,1.56-5.98-.13-.74-.66-1.31-1.37-1.44-2.29-.44-4.79,1.26-6.8,2.63l-.08.05c-10.33,8.09-19.06,19.76-26.68,35.69-.55.42-2.69.92-3.05.68.75-1.55,1.7-3.64,2.18-5.9.08-.65.16-1.31.16-1.95,0-1.39-.33-2.7-1.58-3.6-1.46-.73-3.27-.39-4.48.16-5.45,2.26-9.53,7.85-12.47,12.46-1.58,2.93-3.16,6.06-3.6,9.65-.31,2.81.32,4.62,1.92,5.53,1.64.84,3.71-.03,4.52-.45,5.52-2.91,9.38-8.74,12.43-14.07.12-.02,1.78-.06,3.04-.39.02,0,.02,0,.05.02-.07.24-.72,2.18-.72,2.18-1.93,5.65-2.82,9.5-1,11.78,2.6,3.22,6.91-.11,10.42-4.51-.75,5.27,1.98,6.09,4.06,5.69,2.39-.65,5.05-3.2,6.29-4.51-.4,1.53-.29,4.28,1.89,4.56,1.49.28,2.61-.54,3.9-1.23,4.63-2.52,10.17-10.92,11.61-13.35h-1.89c-2.05,3.09-4.65,7.14-7.92,9.07h0ZM95.41,65.62h5.3l2.99-4.86h-5.3l-2.99,4.86ZM180.04,52.71c-4.04,2.29-8.23,3.78-13.3,3.26-1.4,1.58-2.77,3.22-4.03,4.9,7.12,1.81,14.66-2.21,18.87-6.04,4.45-3.86,6.73-8.72,6.73-8.72,0,0-3.34,3.81-8.27,6.61h0ZM135.49,51.49c-.84,9.66-8.35,15.33-10.21,15.79-1.13.23-3.05-.27-1.33-4.33,2.53-5.46,6.84-10.1,11.47-12.47.11.4.11.66.08,1.02h0ZM120.85,75.83c-.54-1.16-1.82-1.91-3.18-1.83-4.42.4-8.74,4.04-11.01,9.26-1.19,2.68-1.84,4.9-2.27,8.42,1.37-1.58,4.18-4.18,7.36-5.61,0,0,.43-3.38,2.64-6.38.84-1.24,2.51-3.25,4.38-2.71,1.64.55,1.06,5.09-1.12,9.48-1.61,3.23-4.08,6.46-6.58,8.69-2.21,1.87-5.47,4.14-8.33,2.39-1.8-1.07-2.72-3.3-2.52-6.17.86-8.16,4.57-15.11,9.89-23.02,5.48-7.35,11.52-14.9,19.66-18.92,1.66-.84,3.2-1.03,4.53-.52,0,0-7.64,4.2-11.28,11.97-.93,1.97-2.21,4.64-.92,7,.68,1.23,1.88,1.32,2.85,1.26,4.46-1.03,7.35-5.2,9.7-9.02,1.37-2.89,2.58-5.77,2.58-8.97,0-.39-.02-.9-.05-1.29,2.13-1.13,6.51.87,6.51.87,3.42,1.13,10.69,6.71,13.15,7.77,1.2-1.39,3.16-3.49,4.27-4.54l-1.6-.99c-2.57-1.57-5.28-3.05-7.95-4.52-6.07-3.31-11-2.15-13.52-1.24-.99.36-1.89.66-1.89.66-1.87-2.04-4.92-1.84-7.18-1.29-8.11,2.33-15.63,8-23.7,17.84-5.93,7.71-9.61,14.36-11.57,20.94-1.51,4.43-1.97,10.94,1.72,14.8,3.14,3.28,7.3,2.57,10.23,1.39,6.36-3.13,12.08-9.89,14.93-17.66.69-2.31,1.45-5.57.27-8.06h0ZM50.31,68.34s-1.08,2.49-1.08,2.49c-.15.13-.4.06-.68,0l-.48-.08c-1.51-.47-2.65-1.47-3-2.67-.48-2.33,1.5-4.15,2.38-4.81.84-.58,2.15-.89,2.91-.29.47.55.65,1.26.65,2.04,0,1.05-.32,2.23-.69,3.33h0ZM48.01,73.01s-.05.15-.07.19c0,0-2.43,3.96-2.43,3.96-1.46,1.96-3.29,4.41-5.58,5.59-.68.23-1.61.37-2.09-.23-1.01-1.21-.49-2.89-.07-4.25l.15-.48c1.21-3.3,3.14-6.2,5.02-8.9.02-.02.08-.03.09-.03,0,.02.01.02.02.05,1.18,2.26,3.38,3.31,5.04,3.8,0,0,.02.02.02.05,0,.05-.03.11-.09.26h0ZM78.37,70.41c1.09-1.5,4.24-5.53,5.02-6.2,2.59-2.28,3.63-1.28,3.72-.57-2.42,4.33-5.27,9.29-7.95,13.75,0-.02-.84,1.28-.84,1.28-1.18,1.81-2.38,3.36-4.32,4.44-.28.08-.73.11-1.04-.11-.37-.24-.51-.65-.47-1.07.12-1.39,1.53-5.64,5.9-11.52h0ZM51.46,60.58c-3.35-2.2-10.08,2-15.47,9.21-4.93,6.46-7.06,13.98-4.74,17.45,3.45,4.09,9.84-1.86,12.57-5.04l.35-.37c1.85-1.99,3.28-4.38,4.66-6.67,0,0,1.27-2.1,1.33-2.2.79-.14,1.73-.37,2.8-.68-.02.05-4.08,6.88-3.67,10.28.13,1.03.03,4.82,3.72,5.96,4.92.82,8.85-2.99,12.31-6.38,0,0,.59-.56.92-.89-.07.26-.13.53-.19.79-1.44,5.01.5,6.06,1.72,6.45,3.67,1.07,8.05-4.27,8.07-4.27-.11,1.68-.45,3.07,1.32,4.18,1.67.6,3.36-.31,4.65-1.17,4.63-3.26,8.36-8.37,11.37-12.79h-1.92s-4.74,6.84-7.81,8.33c0,0-.56.29-.88.06-.4-.34-.24-1.05,0-1.54.02-.03,11.83-20.53,11.83-20.53h-5.58s-.61.99-.66,1.05c-.04-.03-.13-.2-.19-.28-3.46-4.78-11.29,2.57-17.18,11.1-2.27,3.28-5.16,6.97-8.15,9.64,0,0-4.44,4.07-6.33,1.15-.69-1.23-.48-3.02-.09-4.2,2.21-6.29,6.01-11.99,10.34-15.43,1.22-.95,2.55-1.23,3.21-.82.63.37.73,1.29.33,1.92-1.01-.03-1.82.27-2.47.95-1.29,1.36-1.74,2.67-1.33,3.89,2,2.84,5.98-2.78,5.79-6.2-.07-1.23-.72-2.39-1.7-2.96-1.46-.87-3.68-.65-5.12.05-1.93.73-4.97,3.26-6.75,5.23-2.24,2.47-6.08,5.22-7.28,4.91.39-1.05,3.64-7.69.22-10.18h0ZM79.51,96.53c-6.57-4.23-15.49-4.98-29.87-.99-15.33,3.6-20.45,5.91-27.16,1.28-2.58-2.28-3.5-5.95-2.81-11.23,1.6-8.61,5.93-16.9,13.62-26.09,4.29-4.78,8.27-8.89,13.53-10.53,4.03-1.03,3.65,2.13,3.16,2.58-.51,0-1.38.08-2.05.52-.54.42-2.03,1.78-2.11,3.6-.12,2.79,2.78,2.21,4.02.68,1.34-1.73,3.33-5.04,1.77-8.13-.66-1.1-1.79-1.86-3.19-2.12-4.81-.28-9.3,2.02-13.43,4.56-9.05,6.28-16.28,14.99-20.38,24.53-2.36,5.75-4.5,13.99-1.3,20.7,2.48,4.65,7.62,7.12,13.75,6.61,4.3-.45,9.5-1.84,13-2.68,3.5-.84,21.4-7,27.29,3.72,0,0,1.96-3.8,6.85-3.88,4.02-.37,9.82,1.16,14.04,4.27-1.41-2.12-5.4-5.23-8.72-7.38h0Z"/>
</svg>