<?xml version="1.0" encoding="UTF-8"?>
<svg id="Layer_1" data-name="Layer 1" xmlns="http://www.w3.org/2000/svg" viewBox="0 0 200 150">
  <defs>
    <style>
      .cls-1 {
        fill: #d7df23;
      }

      .cls-1, .cls-2, .cls-3 {
        fill-rule: evenodd;
      }

      .cls-2 {
        fill: #fff;
      }
    </style>
  </defs>
  <path class="cls-3" d="M166.05,73.11l-11.02,18.98-9.4.04,20.42-35.73,20.34,35.73h-9.55l-10.79-19.02h0ZM136.38,83.87h10.53l-4.89,8.26h-13.72l.04-10.06v-25.45h8.09l-.04,27.25h0ZM107.5,56.62c10.04.04,18.16,7.97,18.13,17.77-.04,9.77-8.16,17.7-18.2,17.7-10-.04-18.13-7.97-18.13-17.77.04-9.77,8.16-17.7,18.2-17.7ZM107.46,83.83c5.38,0,9.7-4.22,9.7-9.44.04-5.21-4.32-9.47-9.66-9.47-5.34-.04-9.7,4.22-9.7,9.44-.04,5.21,4.32,9.47,9.66,9.47h0ZM74.33,71.57c-.11-1.47-.49-3.42-1.05-5.29-1.16-3.86-3.18-7.42-5.9-10.39-1.43-1.54-3.05-2.97-5.45-4.66-1.84-.91-3.64-1.87-5.41-2.9-1.17-.66-2.56-1.47-4.4-2.06-2.18-.52-4.41-.8-6.66-.84-2.18-.07-4.36.11-6.47.51-2.22.37-4.06.95-6.51,1.54-5.53,2.39-9.81,5.99-13.5,10.76-12.86,17.96-1.24,43.11,20.23,46.08,3.54.48,7.07.29,10.42-.48l2.37-.62c.07-.04.19-.07.26-.07l2.71-1.03c.15-.07.26-.11.41-.18l1.13-.51c2.16-1.07,4.2-2.39,6.05-3.93-1.69,1.54-3.53,2.9-5.49,4.08l.11.07c.38-.11.71-.22,1.09-.29,0,0,0,.59-.07.48-.6.44.34.04,1.54-.59,1.2-.62,2.37-1.4,3.42-2.28,1.54-1.28,2.9-2.68,4.81-4.96,1.95-3.42,4.4-6.39,5.53-10.39.38-1.06.71-2.31.94-3.6.22-1.28.38-2.61.38-3.97-.04-1.36-.19-2.76-.49-4.48h0ZM46.5,101.76c6.58-1.03,12.11-4.66,16.62-9.62,1.24-1.8,2.22-3.45,3.42-5.25,1.5-3.67,1.39-6.94,1.88-9.25.6-4.19-.83-7.57-2.03-11.16-1.84-4.19-4.29-7.31-8.57-9.73-10.83-6.68-25.57-4.81-32.6,5.18-.04,0-.23.26-.6.77.49-2.06,1.73-3.27,2.97-4.44,3.69-3.01,7.97-5.4,12.86-6.57,5.53-.59,11.02,0,15.94,2.39,7.37,4.19,12.26,10.76,13.5,18.54v7.2c-1.54,11.79-11.7,20.75-23.39,21.96ZM73.54,74.95c-.26-17.26-17.45-28.9-34.18-26.55-4.89,1.21-10.23,3.63-14.03,7.01-1.84,1.21-2.71,3.45-4.55,5.25-7.37,10.76-6.09,24.53,3.08,32.91,1.18,1.16,2.43,2.24,3.76,3.23-7.67-4.59-11.13-11.54-12.33-19.98,0-3.01.6-5.99,1.24-9,4.29-13.18,17.79-22.77,32.49-20.34,2.44.59,4.89,1.21,7.37,1.8,3.08,1.21,6.13,3.01,8.57,5.4,2.44,2.38,4.29,5.4,6.13,8.37,1.24,2.39,1.84,5.4,2.44,7.79.11,1.37.11,2.75,0,4.11h0Z"/>
  <path class="cls-2" d="M58.27,75.21c0,7.42-6.24,13.44-13.95,13.44s-13.95-6.02-13.95-13.44,6.24-13.44,13.95-13.44,13.95,6.02,13.95,13.44h0Z"/>
  <path class="cls-1" d="M58.35,72.93c-.19-1.03-.49-1.84-.79-2.97-1.2-2.5-2.97-4.44-5.3-6.1-8.72-5.76-20.72-.22-22,9.62-.49,3.89.9,7.64,3.38,10.5-.75-.77-1.58-1.58-2.14-2.5l-.07.07c.07.22.38.37.45.59,0,0-.3,0-.23-.04-.23-.25-.04.15.3.7.3.55.68,1.07,1.13,1.54.64.7,1.32,1.32,2.44,2.17,1.66.84,3.12,1.95,5.04,2.46.53.15,1.13.29,1.73.4.64.11,1.24.15,1.92.15.64,0,1.32-.07,2.14-.22.85-.1,1.69-.27,2.52-.51,1.84-.55,3.54-1.51,4.97-2.79.71-.66,1.73-1.5,2.52-2.61.64-1.25.71-1.87,1.02-2.42.3-.55.68-1.17.94-2.02.22-1,.34-2.02.38-3.05-.04-1.03-.11-2.02-.34-2.97h0ZM49.4,66.1c1.28.73,1.47.84.79.37.98.22,1.58.77,2.18,1.32,1.47,1.65,2.67,3.6,3.27,5.84.34,2.53.07,5.07-1.01,7.31-1.95,3.41-5.08,5.69-8.8,6.31-.41,0-.86,0-1.28.04,1.05-.18,1.73-.85,3.65-1.54,2.07-.73,4.4-4.15,5.53-6.13,3.31-5.4-.6-10.39-4.33-13.51h0ZM42.33,87.32c-5.72-.59-10.12-5.25-10.72-10.65.52,3.01,2.33,5.32,4.78,7.38.87.55,2.14,1.32,3.01,1.87,1.47.55,2.33,1.14,3.76,1.4h-.83ZM57.71,77.52c-.26,1.14-.52,2.24-.79,3.38-.56,1.4-1.39,2.83-2.52,3.97-1.13,1.14-2.56,2.02-3.99,2.87-1.13.59-2.56.88-3.72,1.17-.68.07-1.47-.22-2.14-.26,8.35-.22,14.07-7.97,12.83-15.64-.6-2.24-1.81-4.19-3.27-6.13-.6-.85-1.77-1.36-2.63-2.2-5.23-3.27-12.15-2.61-16.09,1.69-.55.56-1.07,1.17-1.54,1.8,2.11-3.08,5.49-5.25,9.55-5.88,1.43-.04,2.9.22,4.32.48,6.32,1.91,11.02,8.01,10,14.76h0Z"/>
</svg>