<?xml version="1.0" encoding="UTF-8"?>
<svg id="Layer_1" data-name="Layer 1" xmlns="http://www.w3.org/2000/svg" viewBox="0 0 200 150">
  <defs>
    <style>
      .cls-1 {
        fill: #f80000;
      }
    </style>
  </defs>
  <path class="cls-1" d="M85.14,78.35h11.31l-5.98-9.62-10.97,17.39h-4.99l13.34-20.89c.58-.84,1.55-1.35,2.62-1.35s2,.49,2.57,1.32l13.4,20.92h-4.99l-2.36-3.89h-11.45l-2.5-3.89ZM137.01,82.23v-18.14h-4.24v19.92c0,.55.21,1.07.62,1.48s.95.63,1.55.63h19.32l2.5-3.89h-19.74ZM66.91,78.98c4.11,0,7.45-3.32,7.45-7.44s-3.34-7.45-7.45-7.45h-18.54v22.03h4.24v-18.14h14.02c1.97,0,3.55,1.6,3.55,3.57s-1.58,3.57-3.55,3.57l-11.95-.02,12.65,11.02h6.15l-8.51-7.14h1.93ZM22.3,86.12c-6.08,0-11.02-4.92-11.02-11.01s4.94-11.02,11.02-11.02h12.8c6.08,0,11.02,4.94,11.02,11.02s-4.93,11.01-11.02,11.01h-12.8ZM34.82,82.23c3.94,0,7.13-3.18,7.13-7.12s-3.19-7.14-7.13-7.14h-12.24c-3.94,0-7.13,3.2-7.13,7.14s3.19,7.12,7.13,7.12h12.24ZM115.28,86.12c-6.08,0-11.02-4.92-11.02-11.01s4.94-11.02,11.02-11.02h15.21l-2.48,3.89h-12.45c-3.94,0-7.14,3.2-7.14,7.14s3.2,7.12,7.14,7.12h15.28l-2.5,3.89h-13.06ZM167.09,82.23c-3.25,0-6.01-2.18-6.86-5.19h18.11l2.5-3.89h-20.61c.84-2.99,3.6-5.19,6.86-5.19h12.43l2.51-3.89h-15.23c-6.08,0-11.02,4.94-11.02,11.02s4.94,11.01,11.02,11.01h13.06l2.5-3.89h-15.28M184.3,66.43c0-1.06.86-1.93,1.92-1.93,0,0,0,0,.01,0,1.09,0,1.95.86,1.95,1.93s-.86,1.95-1.95,1.95-1.93-.86-1.93-1.95ZM186.24,68.93c1.37,0,2.48-1.11,2.48-2.48s-1.11-2.48-2.48-2.48-2.46,1.11-2.46,2.48,1.11,2.48,2.46,2.48ZM186.01,64.97c.39,0,.55.02.72.09.49.16.54.6.54.77,0,.04,0,.12-.04.23-.02.11-.09.32-.33.47-.04.02-.05.04-.12.07l.63,1.14h-.62l-.56-1.05h-.39v1.05h-.55v-2.78h.7ZM186.2,66.24c.18-.02.35-.02.46-.18.05-.07.07-.14.07-.25,0-.14-.09-.26-.21-.33-.12-.05-.25-.05-.51-.05h-.16v.81h.35"/>
</svg>