<?xml version="1.0" encoding="UTF-8"?>
<svg id="Layer_1" data-name="Layer 1" xmlns="http://www.w3.org/2000/svg" viewBox="0 0 200 150">
  <defs>
    <style>
      .cls-1 {
        fill: #ee2e24;
      }
    </style>
  </defs>
  <path class="cls-1" d="M152.25,102.88c15.27,0,27.7-12.51,27.7-27.88s-12.43-27.88-27.7-27.88-27.7,12.5-27.7,27.88,12.42,27.88,27.7,27.88ZM152.25,65.06c5.44,0,9.87,4.46,9.87,9.94s-4.44,9.93-9.88,9.93-9.87-4.45-9.87-9.94,4.43-9.94,9.87-9.94h0ZM47.75,102.88c15.27,0,27.7-12.51,27.7-27.88s-12.43-27.88-27.7-27.88-27.7,12.5-27.7,27.88,12.43,27.88,27.7,27.88ZM47.75,65.06c5.45,0,9.87,4.46,9.87,9.94s-4.43,9.93-9.87,9.93-9.87-4.45-9.87-9.94,4.43-9.94,9.87-9.94h0ZM99.98,64.43l-8.5-16.95h-19.91l18.6,37.07v17.45h19.64v-17.45l18.6-37.07h-19.92l-8.49,16.95h0Z"/>
</svg>