<?xml version="1.0" encoding="UTF-8"?>
<svg id="Layer_1" data-name="Layer 1" xmlns="http://www.w3.org/2000/svg" viewBox="0 0 200 150">
  <defs>
    <style>
      .cls-1 {
        fill: #1f336b;
      }

      .cls-2 {
        fill: #00baf2;
      }
    </style>
  </defs>
  <path class="cls-2" d="M186.54,63.8c-1.58-4.52-5.89-7.77-10.96-7.77h-.11c-3.29,0-6.26,1.37-8.37,3.57-2.12-2.2-5.08-3.57-8.37-3.57h-.11c-2.89,0-5.54,1.06-7.57,2.81v-.89c-.07-.89-.8-1.59-1.7-1.59h-7.77c-.95,0-1.72.77-1.72,1.72v42.18c0,.95.77,1.72,1.72,1.72h7.77c.87,0,1.58-.65,1.69-1.48v-30.28c0-.1,0-.2.01-.3.12-1.35,1.11-2.46,2.68-2.6h1.43c.65.06,1.21.29,1.64.64.68.54,1.05,1.36,1.05,2.27l.03,30.13c0,.95.77,1.72,1.72,1.72h7.77c.92,0,1.66-.73,1.71-1.64v-30.25c0-.99.45-1.89,1.26-2.43.4-.26.88-.43,1.43-.48h1.43c1.68.15,2.7,1.42,2.69,2.9l.03,30.09c0,.95.77,1.72,1.72,1.72h7.77c.95,0,1.72-.77,1.72-1.72v-32.36c0-2.21-.25-3.15-.59-4.11M133.96,56.48h-4.44v-7.22c0-.87-.7-1.57-1.57-1.57-.1,0-.2.01-.3.03-4.92,1.35-3.94,8.17-12.93,8.75h-.87c-.13,0-.26.02-.38.04h0,0c-.77.18-1.34.85-1.34,1.67v7.77c0,.95.77,1.72,1.72,1.72h4.69v32.93c0,.94.75,1.7,1.69,1.7h7.68c.94,0,1.7-.76,1.7-1.7v-32.93h4.35c.95,0,1.72-.77,1.72-1.72v-7.77c0-.95-.77-1.72-1.72-1.72"/>
  <path class="cls-1" d="M106.02,56.48h-7.77c-.95,0-1.71.77-1.71,1.72v16.06c-.02.99-.82,1.79-1.82,1.79h-3.25c-1.01,0-1.82-.81-1.82-1.82l-.03-16.03c0-.95-.77-1.72-1.72-1.72h-7.77c-.95,0-1.72.77-1.72,1.72v17.6c0,6.69,4.77,11.45,11.46,11.45,0,0,5.02,0,5.17.03.91.1,1.61.86,1.61,1.8s-.69,1.68-1.59,1.79c-.04,0-.08.02-.13.03l-11.36.04c-.95,0-1.72.77-1.72,1.72v7.76c0,.95.77,1.72,1.72,1.72h12.7c6.69,0,11.46-4.76,11.46-11.45v-32.48c0-.95-.77-1.72-1.72-1.72M30.85,70.71v4.79c0,1-.81,1.82-1.82,1.82h-4.93s0-9.6,0-9.6h4.93c1,0,1.82.81,1.82,1.82v1.17ZM31.53,56.48H14.55c-.93,0-1.68.76-1.68,1.68v7.61s0,.03,0,.04c0,.04,0,.07,0,.11v34.44c0,.94.7,1.7,1.57,1.72h7.91c.95,0,1.72-.77,1.72-1.72l.03-11.8h7.43c6.22,0,10.55-4.31,10.55-10.56v-10.96c0-6.24-4.33-10.57-10.55-10.57h0ZM63.07,88.94v1.21c0,.1-.01.19-.03.28-.02.09-.04.17-.07.25-.24.68-.92,1.17-1.73,1.17h-3.23c-1.01,0-1.83-.77-1.83-1.71v-1.46s0-.04,0-.05v-3.9s0-1.22,0-1.22h0c0-.95.82-1.71,1.83-1.71h3.23c1.01,0,1.83.76,1.83,1.71v5.42ZM61.84,56.52h-10.78c-.95,0-1.72.72-1.72,1.61v3.02s0,.04,0,.06c0,.02,0,.04,0,.07v4.14c0,.94.82,1.71,1.83,1.71h10.26c.81.13,1.45.72,1.55,1.64v1c-.09.88-.73,1.52-1.5,1.6h-5.08c-6.76,0-11.57,4.49-11.57,10.79v9.03c0,6.27,4.14,10.73,10.85,10.73h14.08c2.53,0,4.58-1.91,4.58-4.27v-29.47c0-7.15-3.68-11.66-12.49-11.66h0Z"/>
</svg>