<?xml version="1.0" encoding="UTF-8"?>
<svg id="Layer_1" data-name="Layer 1" xmlns="http://www.w3.org/2000/svg" viewBox="0 0 200 150">
  <defs>
    <style>
      .cls-1 {
        fill: #3c3936;
      }

      .cls-2 {
        fill: #789c4a;
      }
    </style>
  </defs>
  <path class="cls-2" d="M110.82,67.38h-15.48c-4.11,0,7.98-3.39,7.98-7.38v-23.34c0-4.11-11.97-7.38-7.98-7.38h15.48c4.11,0,7.38,3.39,7.38,7.38v23.22c0,4.11-3.39,7.5-7.38,7.5"/>
  <path class="cls-2" d="M90.63,41.74c-.97-4.23-3.99-11.73-14.39-12.46h-.6v26.12s-.12,4.35.85,8.83c.97,4.23,3.99,11.73,14.39,12.46h.6v-26.12s.12-4.47-.85-8.83"/>
  <path class="cls-1" d="M17.7,85.16h5.68c.97,0,1.81.12,2.54.24s1.45.48,2.06.85.97.97,1.33,1.57.48,1.45.48,2.42-.12,1.69-.48,2.42c-.36.73-.73,1.21-1.33,1.69s-1.21.85-2.06.97c-.73.24-1.57.36-2.54.36h-2.66v6.17h-3.02v-16.69ZM23.15,93.38c2.42,0,3.75-.97,3.75-3.02,0-1.09-.36-1.81-.97-2.18s-1.57-.6-2.78-.6h-2.42v5.8h2.42Z"/>
  <path class="cls-1" d="M30.4,95.56c0-.97.24-1.93.6-2.78s.85-1.57,1.45-2.06c.6-.6,1.33-.97,2.06-1.33.73-.24,1.57-.48,2.42-.48.97,0,1.81.12,2.54.48.73.24,1.33.73,1.81,1.21s.85,1.21,1.09,1.93c.24.73.36,1.57.36,2.42v.85c0,.24,0,.48-.12.6h-9.19c.12,1.09.6,2.06,1.33,2.66s1.69.97,2.9.97c.6,0,1.21-.12,1.81-.24.6-.12,1.09-.48,1.69-.73l.97,1.81c-.73.48-1.45.73-2.3,1.09-.85.24-1.69.36-2.66.36s-1.81-.12-2.66-.48c-.85-.24-1.57-.73-2.18-1.33s-1.09-1.21-1.45-2.06c-.24-.97-.48-1.81-.48-2.9M39.96,94.47c0-.97-.24-1.81-.73-2.42s-1.33-.85-2.3-.85c-.48,0-.85.12-1.21.24-.36.12-.73.36-1.09.6-.36.24-.6.6-.85.97s-.36.85-.48,1.33h6.65v.12Z"/>
  <path class="cls-1" d="M44.79,95.56c0-1.09.12-1.93.48-2.78s.85-1.45,1.45-2.06,1.21-.97,2.06-1.33c.73-.24,1.57-.48,2.42-.48s1.57.12,2.42.48c.73.24,1.45.73,2.06,1.33s1.09,1.21,1.45,2.06.48,1.69.48,2.78-.12,1.93-.48,2.78c-.36.85-.85,1.45-1.45,2.06s-1.21.97-2.06,1.33c-.73.24-1.57.48-2.42.48s-1.57-.12-2.42-.48c-.73-.24-1.45-.73-2.06-1.33s-1.09-1.21-1.45-2.06c-.36-.85-.48-1.69-.48-2.78M47.82,95.56c0,1.21.24,2.3.85,3.02s1.33,1.09,2.42,1.09,1.81-.36,2.42-1.09c.6-.73.85-1.81.85-3.02,0-1.33-.24-2.3-.85-3.02s-1.33-1.09-2.42-1.09-1.81.36-2.42,1.09-.85,1.81-.85,3.02"/>
  <path class="cls-1" d="M62.21,102.94v3.99h-3.02v-17.66h2.42l.24,1.45h.12c.6-.48,1.21-.97,1.93-1.21.73-.36,1.45-.48,2.18-.48.85,0,1.57.12,2.18.48.6.24,1.21.73,1.57,1.33s.73,1.21.97,2.06.36,1.69.36,2.66c0,1.09-.12,2.06-.48,2.9-.36.85-.73,1.57-1.21,2.18s-1.09.97-1.81,1.33-1.33.48-2.06.48c-.6,0-1.21-.12-1.81-.36s-1.21-.6-1.69-1.09l.12,1.93ZM62.21,98.58c.48.48.97.73,1.45.85.48.12.97.24,1.33.24.85,0,1.69-.36,2.3-1.09.6-.73.85-1.81.85-3.27,0-1.21-.24-2.3-.73-2.9-.48-.73-1.21-1.09-2.18-1.09-.48,0-.97.12-1.45.36s-.97.6-1.45,1.21v5.68h-.12Z"/>
  <path class="cls-1" d="M69.71,83.71h6.89v13.67c0,.85.24,1.45.6,1.81.48.36.97.48,1.57.48s1.33-.12,2.18-.48l.73,2.18c-.6.24-1.21.36-1.69.48-.48.12-1.21.24-1.93.24-1.45,0-2.66-.48-3.39-1.33-.73-.85-1.09-2.06-1.09-3.63v-11h-3.87v-2.42Z"/>
  <path class="cls-1" d="M82.28,95.56c0-.97.24-1.93.6-2.78s.85-1.57,1.45-2.06c.6-.6,1.33-.97,2.06-1.33.73-.24,1.57-.48,2.42-.48.97,0,1.81.12,2.54.48.73.24,1.33.73,1.81,1.21s.85,1.21,1.09,1.93.36,1.57.36,2.42v.85c0,.24,0,.48-.12.6h-9.19c.12,1.09.6,2.06,1.33,2.66s1.69.97,2.9.97c.6,0,1.21-.12,1.81-.24.6-.12,1.09-.48,1.69-.73l.97,1.81c-.73.48-1.45.73-2.3,1.09-.85.24-1.69.36-2.66.36s-1.81-.12-2.66-.48-1.57-.73-2.18-1.33-1.09-1.21-1.45-2.06c-.36-.97-.48-1.81-.48-2.9M91.84,94.47c0-.97-.24-1.81-.73-2.42-.48-.6-1.33-.85-2.3-.85-.48,0-.85.12-1.21.24-.36.12-.73.36-1.09.6-.36.24-.6.6-.85.97s-.36.85-.48,1.33h6.65v.12Z"/>
  <path class="cls-1" d="M98,98.34c.73.48,1.45.85,2.3,1.21.73.24,1.69.48,2.66.48s1.69-.12,2.18-.48c.48-.24.73-.6.73-1.09s-.24-.85-.85-1.09-1.57-.6-2.78-.97c-.6-.12-1.21-.36-1.69-.6-.6-.24-1.09-.48-1.45-.73-.48-.24-.73-.6-.97-.97-.24-.36-.36-.85-.36-1.33,0-1.09.48-2.06,1.45-2.66s2.3-1.09,4.11-1.09c.97,0,1.93.12,2.9.48.85.36,1.69.73,2.3,1.21l-1.33,1.81c-.6-.36-1.21-.73-1.81-.97s-1.33-.36-2.06-.36c-.97,0-1.69.12-2.06.36-.36.24-.6.6-.6.97,0,.24.12.48.24.6s.48.36.73.48c.36.12.73.24,1.09.48.48.12.85.24,1.45.36.73.24,1.45.36,1.93.6.6.24,1.09.48,1.45.73.36.24.73.6.97.97.24.36.36.85.36,1.33,0,.6-.12,1.09-.36,1.57-.24.48-.6.85-1.09,1.21s-1.09.6-1.81.85-1.57.36-2.54.36c-1.21,0-2.3-.24-3.39-.6s-2.06-.85-2.78-1.33l1.09-1.81Z"/>
  <path class="cls-1" d="M117.6,93.38c0-1.33.12-2.54.48-3.63s.85-1.93,1.45-2.78c.6-.73,1.45-1.33,2.3-1.69.85-.36,1.93-.6,3.02-.6.6,0,1.09,0,1.57.12s.85.24,1.21.48.73.36.97.6c.24.24.48.48.73.73l-.73.73c-.48-.48-.97-.85-1.57-1.21s-1.33-.48-2.3-.48-1.81.12-2.54.48c-.73.36-1.33.85-1.93,1.57-.48.6-.97,1.45-1.21,2.42s-.36,2.06-.36,3.14c0,1.21.12,2.3.36,3.14.24.97.6,1.81,1.21,2.42.48.73,1.09,1.21,1.81,1.57s1.57.6,2.42.6c.73,0,1.45-.12,2.06-.36s1.21-.48,1.57-.97v-5.08h-3.87v-.97h5.08v6.65c-.48.6-1.21.97-2.06,1.33s-1.81.48-2.9.48-2.06-.24-2.9-.6-1.57-.97-2.18-1.81c-.6-.73-1.09-1.69-1.45-2.78,0-.97-.24-2.18-.24-3.51"/>
  <path class="cls-1" d="M132.83,89.51h.97l.12,3.02h0c.73-.97,1.45-1.81,2.42-2.42s2.06-.97,3.27-.97c.36,0,.85,0,1.21.12s.85.24,1.21.36l-.24.97c-.48-.12-.85-.24-1.21-.36s-.73-.12-1.21-.12c-.97,0-2.06.24-2.9.85-.97.6-1.81,1.57-2.66,3.02v7.86h-1.21v-12.34h.24Z"/>
  <path class="cls-1" d="M143.35,95.68c0-.97.12-1.93.48-2.78s.73-1.45,1.33-2.06,1.21-.97,1.93-1.21,1.45-.48,2.3-.48,1.57.12,2.3.48c.73.24,1.33.73,1.93,1.21.6.6.97,1.21,1.33,2.06.36.85.48,1.69.48,2.78,0,.97-.12,1.93-.48,2.78s-.73,1.45-1.33,2.06-1.21.97-1.93,1.21-1.45.48-2.3.48-1.57-.12-2.3-.48c-.73-.24-1.33-.73-1.93-1.21-.6-.6-.97-1.21-1.33-2.06-.36-.85-.48-1.69-.48-2.78M144.44,95.68c0,.85.12,1.57.36,2.18.24.73.6,1.21.97,1.69s.97.85,1.45,1.09c.6.24,1.21.36,1.93.36s1.33-.12,1.93-.36,1.09-.6,1.45-1.09c.36-.48.73-1.09.97-1.69.24-.73.36-1.45.36-2.18,0-.85-.12-1.57-.36-2.18-.24-.73-.6-1.21-.97-1.69s-.97-.85-1.45-1.09c-.6-.24-1.21-.36-1.93-.36s-1.33.12-1.93.36-1.09.6-1.45,1.09c-.36.48-.73,1.09-.97,1.69-.24.73-.36,1.45-.36,2.18"/>
  <path class="cls-1" d="M167.9,101.85h-.97l-.12-2.42h-.12c-.73.85-1.45,1.45-2.18,1.93-.73.48-1.69.73-2.66.73-1.45,0-2.66-.36-3.39-1.21-.73-.85-1.09-2.06-1.09-3.75v-7.62h1.09v7.5c0,1.33.24,2.42.85,3.02.48.73,1.45.97,2.66.97.48,0,.85,0,1.21-.12s.73-.24,1.21-.48c.36-.24.73-.48,1.09-.85s.73-.73,1.21-1.21v-8.83h1.09v12.34h.12Z"/>
  <path class="cls-1" d="M172.62,102.94v4.23h-1.21v-17.66h.97l.12,1.81h0c.6-.6,1.33-1.09,2.18-1.45s1.57-.6,2.42-.6c1.69,0,3.02.6,3.87,1.69s1.33,2.66,1.33,4.6c0,1.09-.12,1.93-.48,2.78-.36.85-.73,1.57-1.21,2.06-.48.6-1.09.97-1.81,1.33s-1.45.48-2.18.48c-.6,0-1.21-.12-2.06-.48-.73-.36-1.45-.73-2.06-1.33l.12,2.54ZM172.62,99.31c.73.6,1.45,1.09,2.18,1.45.73.24,1.33.36,1.81.36.73,0,1.33-.12,1.81-.36.6-.24,1.09-.6,1.45-1.21s.73-1.09.97-1.81.36-1.45.36-2.3c0-.73-.12-1.45-.24-2.06-.12-.6-.36-1.21-.73-1.69s-.73-.85-1.33-1.09c-.48-.24-1.21-.36-1.93-.36-.6,0-1.33.24-2.06.6-.73.36-1.57.97-2.3,1.69v6.77Z"/>
  <rect class="cls-1" x="102.12" y="107.77" width=".85" height="9.8"/>
  <path class="cls-1" d="M108.77,111.28v-.73h-1.93v-2.06l-.85.36v1.69h-1.21v.73h1.21v4.23c0,.85.12,1.33.48,1.69.24.36.73.48,1.21.48.36,0,.73,0,.97-.12h0l-.12-.73h-.12c-.24.12-.48.12-.73.12-.6,0-.97-.48-.97-1.33v-4.35s2.06,0,2.06,0Z"/>
  <polygon class="cls-1" points="110.1 107.65 110.34 111.04 110.94 111.04 111.19 107.65 110.1 107.65"/>
  <path class="cls-1" d="M115.18,113.58c-.97-.36-1.33-.73-1.33-1.33s.36-1.09,1.21-1.09c.48,0,.97.12,1.33.36h.12l.36-.73h0c-.24-.12-.73-.48-1.57-.48-1.45,0-2.18.97-2.18,1.93,0,.85.6,1.45,1.81,1.93.97.36,1.45.85,1.45,1.45s-.36,1.21-1.57,1.21c-.73,0-1.21-.24-1.45-.48h-.12l-.36.73h0c.48.36,1.21.48,1.81.48,1.45,0,2.42-.85,2.42-2.06-.12-.97-1.09-1.57-1.93-1.93"/>
  <path class="cls-1" d="M126.91,117.57c-.12-.48-.12-.97-.12-1.57v-2.66c0-1.81-.85-2.78-2.42-2.78-.73,0-1.45.24-2.06.6h0l.24.6h.12c.48-.36,1.09-.48,1.69-.48.48,0,.97.12,1.21.36.36.36.48.85.48,1.57v.12h0c-1.69,0-2.78.36-3.51.97-.6.36-.85.85-.85,1.57,0,.97.6,1.93,2.06,1.93.97,0,1.81-.48,2.18-1.09l.12.85h.85ZM123.88,117.08c-.6,0-1.33-.36-1.33-1.33,0-.48.12-.73.36-1.09.48-.48,1.33-.73,2.66-.73h.24v1.45c0,.12,0,.24-.12.36,0,.6-.6,1.33-1.81,1.33"/>
  <path class="cls-1" d="M132.47,110.43c-1.09,0-1.93.48-2.42,1.33v-4.47h-.85v10.4h.73v-1.09c.6.85,1.33,1.21,2.42,1.21,1.57,0,3.14-1.33,3.14-3.75,0-2.18-1.21-3.63-3.02-3.63M132.35,111.16c1.57,0,2.3,1.45,2.3,2.9,0,1.81-.97,3.02-2.42,3.02-1.09,0-1.93-.6-2.18-1.69v-1.81c0-.24,0-.36.12-.6.24-1.09,1.09-1.81,2.18-1.81"/>
  <path class="cls-1" d="M140.21,110.43c-1.57,0-3.39,1.21-3.39,3.75,0,2.18,1.33,3.63,3.27,3.63,1.57,0,3.39-1.21,3.39-3.75,0-2.18-1.33-3.63-3.27-3.63M140.09,117.08c-1.33,0-2.42-1.21-2.42-2.9,0-1.45.73-3.02,2.42-3.02,1.81,0,2.42,1.69,2.42,2.9.12,1.69-.97,3.02-2.42,3.02"/>
  <path class="cls-1" d="M150.85,117.57v-7.01h-.85v4.35c0,.24,0,.48-.12.73-.24.73-.97,1.33-1.93,1.33-1.21,0-1.69-.85-1.69-2.54v-3.99h-.85v4.11c0,2.78,1.69,3.14,2.42,3.14,1.33,0,2.06-.85,2.3-1.21v1.09h.73Z"/>
  <path class="cls-1" d="M156.29,111.28v-.73h-1.93v-2.06l-.85.24v1.69h-1.21v.73h1.21v4.23c0,.85.12,1.33.48,1.69.24.36.73.48,1.21.48.36,0,.73,0,.97-.12h0l-.12-.73h-.12c-.24.12-.48.12-.73.12-.6,0-.97-.48-.97-1.33v-4.35h2.06v.12Z"/>
  <path class="cls-1" d="M165.73,110.55l-1.69,4.6c-.12.48-.36.97-.48,1.33-.12-.36-.24-.85-.48-1.33l-1.81-4.6h-.85l2.54,6.53c.12.12.12.24.12.24,0,0,0,.12-.12.24-.36.85-.85,1.45-1.09,1.69-.48.48-.97.6-1.21.73h-.12l.24.73h.12c.12,0,.6-.24,1.21-.73.85-.73,1.45-1.93,2.3-4.23l2.06-5.2s-.73,0-.73,0Z"/>
  <path class="cls-1" d="M170.69,110.43c-1.57,0-3.39,1.21-3.39,3.75,0,2.18,1.33,3.63,3.27,3.63,1.57,0,3.39-1.21,3.39-3.75,0-2.18-1.33-3.63-3.27-3.63M170.56,117.08c-1.33,0-2.42-1.21-2.42-2.9,0-1.45.73-3.02,2.42-3.02,1.81,0,2.42,1.69,2.42,2.9.12,1.69-.97,3.02-2.42,3.02"/>
  <path class="cls-1" d="M181.33,117.57v-7.01h-.85v4.35c0,.24,0,.48-.12.73-.24.73-.97,1.33-1.93,1.33-1.21,0-1.69-.85-1.69-2.54v-3.99h-.85v4.11c0,2.78,1.69,3.14,2.42,3.14,1.33,0,2.06-.85,2.3-1.21v1.09h.73Z"/>
</svg>