<?xml version="1.0" encoding="UTF-8"?>
<svg id="Layer_1" data-name="Layer 1" xmlns="http://www.w3.org/2000/svg" viewBox="0 0 200 150">
  <defs>
    <style>
      .cls-1 {
        fill: #123f75;
      }

      .cls-2 {
        fill: #76a0cd;
      }
    </style>
  </defs>
  <path id="a" class="cls-1" d="M174.64,100.32c0,3.26,1.91,4.93,4.24,4.93s4.24-1.67,4.24-4.93-1.91-4.85-4.24-4.85-4.24,1.67-4.24,4.85ZM184.87,105h2v1.67h-3.75v-1.84c-.74,1.17-2.41,2.09-4.4,2.09-3.58,0-5.91-2.84-5.91-6.6s2.33-6.6,5.91-6.6c1.91,0,3.49.84,4.32,2.09v-5.18h-2v-1.67h3.83v16.05Z"/>
  <path id="b" class="cls-1" d="M166.99,105h2v1.67h-5.91v-1.67h2v-9.36h-2v-1.59h3.74v1.76c.75-1.34,2.58-2.59,5.07-1.76v1.84c-2.99-.84-4.91.75-4.91,3.68v5.43Z"/>
  <g id="c">
    <path class="cls-2" d="M113.43,61.88c-3.33,1.25-5.57,3.43-5.57,3.43-.08-1.09-.33-2.17-.67-3.01,0,0,1.09-2.09,4.24-4.26,3.41-2.34,7.32-3.01,7.32-3.01.83,1.75,1.41,3.59,1.66,5.52,0,0-2.83-.25-6.99,1.34h0ZM111.02,54.95c-3.24,3.18-4.4,6.35-4.4,6.35-.59-1-1.33-1.84-2.33-2.51,0,0,1.24-3.76,3.16-6.52,1.91-2.84,5.07-5.1,5.07-5.1,1.58,1.17,2.91,2.59,4.07,4.1,0,0-3.16,1.42-5.57,3.68h0ZM105.37,51.01c-1.5,3.76-1.83,7.35-1.83,7.35-1-.5-2.24-.92-3.33-1,0,0-.08-3.59.75-7.35.91-4.35,1.91-6.94,1.91-6.94,1.92.17,3.75.75,5.49,1.5,0,0-2,3.84-2.99,6.43Z"/>
    <path class="cls-1" d="M110.68,74.59c-4.07-1.92-8.15-1.5-8.15-1.5,1.5-.58,2.75-1.5,3.66-2.67,0,0,3.58-.42,6.32.08,4.24.92,6.07,2.34,6.07,2.34-.83,1.76-1.91,3.43-3.24,4.85,0,0-1.66-1.67-4.66-3.09h0ZM113.77,68.48c-4.08-.17-6.9.92-6.9.92.5-.92.83-2.01.92-3.09,0,0,3.32-1.84,6.32-2.26,4.16-.58,6.57.25,6.57.25-.08,1.92-.33,3.84-.91,5.68,0,0-2.66-1.34-5.99-1.5h0Z"/>
  </g>
  <g id="c-2" data-name="c">
    <path class="cls-2" d="M86.16,61.88c3.33,1.25,5.57,3.43,5.57,3.43.08-1.09.33-2.17.67-3.01,0,0-1.09-2.09-4.24-4.26-3.41-2.34-7.32-3.01-7.32-3.01-.83,1.75-1.41,3.59-1.66,5.52,0,0,2.83-.25,6.99,1.34h0ZM88.57,54.95c3.24,3.18,4.4,6.35,4.4,6.35.59-1,1.33-1.84,2.33-2.51,0,0-1.24-3.76-3.16-6.52-1.91-2.84-5.07-5.1-5.07-5.1-1.58,1.17-2.91,2.59-4.07,4.1,0,0,3.16,1.42,5.57,3.68h0ZM94.22,51.01c1.5,3.76,1.83,7.35,1.83,7.35,1-.5,2.24-.92,3.33-1,0,0,.08-3.59-.75-7.35-.91-4.35-1.91-6.94-1.91-6.94-1.92.17-3.75.75-5.49,1.5,0,0,2,3.84,2.99,6.43Z"/>
    <path class="cls-1" d="M88.9,74.59c4.07-1.92,8.15-1.5,8.15-1.5-1.5-.58-2.75-1.5-3.66-2.67,0,0-3.58-.42-6.32.08-4.24.92-6.07,2.34-6.07,2.34.83,1.76,1.91,3.43,3.24,4.85,0,0,1.66-1.67,4.66-3.09h0ZM85.82,68.48c4.08-.17,6.9.92,6.9.92-.5-.92-.83-2.01-.92-3.09,0,0-3.32-1.84-6.32-2.26-4.16-.58-6.57.25-6.57.25.08,1.92.33,3.84.91,5.68,0,0,2.66-1.34,5.99-1.5h0Z"/>
  </g>
  <g>
    <path class="cls-1" d="M99.79,77.76c5.91,0,8.49,5.1,8.49,5.1,1.83-.84,3.49-1.84,5.07-3.18,0,0-4.99-6.27-13.56-6.27s-13.47,6.27-13.47,6.27c1.5,1.34,3.24,2.34,5.07,3.18,0,0,2.57-5.1,8.39-5.1h0ZM17.29,90.8v7.52h3.08c3.33,0,4.82-1.34,4.82-3.76s-1.41-3.76-4.82-3.76h-3.08ZM17.29,104.93h2.16v1.76h-6.32v-1.76h2.16v-14.21h-2.16v-1.67h7.24c3.99,0,6.74,1.76,6.74,5.52s-2.74,5.52-6.74,5.52h-3.08v4.85ZM38.74,99.66c0-2.34-1.75-4.18-4.16-4.18s-4.16,1.84-4.16,4.18h8.32ZM40.24,103.08c-.58,2.17-2.58,3.84-5.66,3.84-3.74,0-6.07-2.34-6.07-6.6,0-4.01,2.41-6.6,6.07-6.6,3.99,0,6.49,3.09,5.99,7.61h-10.15c.17,1.92,1.5,3.93,4.16,3.93,1.75,0,2.99-.75,3.66-2.17h2Z"/>
    <path id="b-2" data-name="b" class="cls-1" d="M47.06,105h2v1.67h-5.91v-1.67h2v-9.36h-2v-1.59h3.74v1.76c.75-1.34,2.58-2.59,5.07-1.76v1.84c-2.99-.84-4.91.75-4.91,3.68v5.43Z"/>
    <path class="cls-1" d="M66.6,105h2v1.67h-5.82v-1.67h2v-5.35c0-2.92-1.75-4.18-3.74-4.18s-3.58,1.34-3.58,4.35v5.18h2v1.67h-5.82v-1.67h2v-9.36h-2v-1.59h3.74v1.76c.67-1,2.08-2.01,4.07-2.01,2.75,0,5.16,1.59,5.16,5.85v5.35ZM76.43,105.26c2.49,0,4.24-1.76,4.24-4.93s-1.75-4.85-4.24-4.85-4.24,1.67-4.24,4.85,1.83,4.93,4.24,4.93h0ZM76.43,93.72c3.91,0,6.15,2.84,6.15,6.6s-2.25,6.6-6.15,6.6-6.07-2.76-6.07-6.6,2.25-6.6,6.07-6.6Z"/>
    <path id="a-2" data-name="a" class="cls-1" d="M86.65,100.32c0,3.26,1.91,4.93,4.24,4.93s4.24-1.67,4.24-4.93-1.91-4.85-4.24-4.85-4.24,1.67-4.24,4.85ZM96.88,105h2v1.67h-3.75v-1.84c-.74,1.17-2.41,2.09-4.4,2.09-3.58,0-5.91-2.84-5.91-6.6s2.33-6.6,5.91-6.6c1.91,0,3.49.84,4.32,2.09v-5.18h-2v-1.67h3.83v16.05Z"/>
    <path class="cls-1" d="M111.43,90.8v6.52h4.07c2.66,0,3.75-1.25,3.75-3.26s-1.09-3.26-3.75-3.26h-4.07ZM107.27,88.96h8.23c3.33,0,5.74,1.84,5.74,5.1,0,2.84-1.75,4.51-4.32,5.02l2.83,5.85h2.33v1.76h-3.66l-3.66-7.52h-3.33v5.77h1.91v1.76h-6.06v-1.76h2.16v-14.21h-2.16v-1.76ZM126.15,91.38h2.08v-2.42h-2.08v2.42ZM128.23,105h2v1.67h-5.91v-1.67h2v-9.36h-2v-1.59h3.91v10.95ZM144.12,102.08c-.67,2.84-2.58,4.85-6.08,4.85-3.83,0-6.08-2.76-6.08-6.6s2.25-6.6,6.08-6.6c1.83,0,3.49.92,4.25,2.09v-1.76h1.74v4.6h-2c-.58-1.76-1.75-3.18-3.99-3.18-2.42,0-4.25,1.67-4.25,4.85s1.83,4.93,4.25,4.93c2.16,0,3.58-1.34,4.16-3.18h1.92ZM148.28,100.32c0,3.26,1.83,4.93,4.16,4.93s4.24-1.67,4.24-4.93-1.91-4.85-4.24-4.85-4.16,1.67-4.16,4.85ZM156.6,94.05h3.83v1.59h-2v9.36h2v1.67h-3.83v-1.84c-.75,1.25-2.42,2.09-4.32,2.09-3.58,0-5.91-2.84-5.91-6.6s2.33-6.6,5.91-6.6c1.91,0,3.57.84,4.32,2.09v-1.76Z"/>
  </g>
</svg>