<?xml version="1.0" encoding="UTF-8"?>
<svg id="Layer_1" data-name="Layer 1" xmlns="http://www.w3.org/2000/svg" viewBox="0 0 200 150">
  <defs>
    <style>
      .cls-1 {
        fill: #fff;
      }

      .cls-2 {
        fill: #5f259f;
      }
    </style>
  </defs>
  <g id="g34">
    <circle id="ellipse30" class="cls-2" cx="39.61" cy="75" r="22.51"/>
    <path id="path32" class="cls-2" d="M130.96,87.87v-8.18c0-2.01-.75-3.02-2.64-3.02-.75,0-1.64.13-2.14.25v11.95c0,.38-.38.75-.75.75h-2.89c-.38,0-.75-.38-.75-.75v-13.96c0-.5.38-.88.75-1.01,1.89-.63,3.77-1.01,5.79-1.01,4.53,0,7.04,2.39,7.04,6.79v9.31c0,.38-.38.75-.75.75h-1.76c-1.13,0-1.89-.88-1.89-1.89ZM142.28,82.96l-.13,1.13c0,1.51,1.01,2.39,2.64,2.39,1.26,0,2.39-.38,3.65-1.01.13,0,.25-.13.38-.13.25,0,.38.13.5.25.13.13.38.5.38.5.25.38.5.88.5,1.26,0,.63-.38,1.26-.88,1.51-1.38.75-3.02,1.13-4.78,1.13-2.01,0-3.65-.5-4.91-1.51-1.26-1.13-2.01-2.64-2.01-4.53v-4.91c0-3.9,2.52-6.29,6.79-6.29s6.54,2.26,6.54,6.29v3.02c0,.38-.38.75-.75.75h-7.92v.13ZM142.15,80.19h4.78v-1.26c0-1.51-.88-2.52-2.39-2.52s-2.39.88-2.39,2.52v1.26ZM174.23,82.96l-.13,1.13c0,1.51,1.01,2.39,2.64,2.39,1.26,0,2.39-.38,3.65-1.01.13,0,.25-.13.38-.13.25,0,.38.13.5.25.13.13.38.5.38.5.25.38.5.88.5,1.26,0,.63-.38,1.26-.88,1.51-1.38.75-3.02,1.13-4.78,1.13-2.01,0-3.65-.5-4.91-1.51-1.26-1.13-2.01-2.64-2.01-4.53v-4.91c0-3.9,2.52-6.29,6.79-6.29s6.54,2.26,6.54,6.29v3.02c0,.38-.38.75-.75.75h-7.92v.13ZM174.1,80.19h4.78v-1.26c0-1.51-.88-2.52-2.39-2.52s-2.39.88-2.39,2.52v1.26ZM100.14,89.75h1.76c.38,0,.75-.38.75-.75v-9.31c0-4.28-2.26-6.79-6.04-6.79-1.13,0-2.39.25-3.14.5v-4.65c0-1.01-.88-1.89-1.89-1.89h-1.76c-.38,0-.75.38-.75.75v21.38c0,.38.38.75.75.75h2.89c.38,0,.75-.38.75-.75v-11.82c.63-.25,1.51-.38,2.14-.38,1.89,0,2.64.88,2.64,3.02v8.18c.13.88.88,1.76,1.89,1.76ZM119.14,79.19v4.65c0,3.9-2.64,6.29-7.04,6.29s-7.04-2.39-7.04-6.29v-4.65c0-3.9,2.64-6.29,7.04-6.29s7.04,2.39,7.04,6.29h0ZM114.73,79.19c0-1.51-.88-2.52-2.52-2.52s-2.52.88-2.52,2.52v4.65c0,1.51.88,2.39,2.52,2.39s2.52-.88,2.52-2.39v-4.65ZM86.69,77.05c0,4.02-3.02,6.79-7.04,6.79-1.01,0-1.89-.13-2.77-.5v5.66c0,.38-.38.75-.75.75h-2.89c-.38,0-.75-.38-.75-.75v-20c0-.5.38-.88.75-1.01,1.89-.63,3.77-1.01,5.79-1.01,4.53,0,7.67,2.77,7.67,7.04v3.02ZM82.16,73.78c0-2.01-1.38-3.02-3.27-3.02-1.13,0-1.89.38-1.89.38v8.3c.75.38,1.13.5,2.01.5,1.89,0,3.27-1.13,3.27-3.02v-3.14h-.13ZM167.94,77.05c0,4.02-3.02,6.79-7.04,6.79-1.01,0-1.89-.13-2.77-.5v5.66c0,.38-.38.75-.75.75h-2.89c-.38,0-.75-.38-.75-.75v-20c0-.5.38-.88.75-1.01,1.89-.63,3.77-1.01,5.79-1.01,4.53,0,7.67,2.77,7.67,7.04v3.02ZM163.41,73.78c0-2.01-1.38-3.02-3.27-3.02-1.13,0-1.89.38-1.89.38v8.3c.75.38,1.13.5,2.01.5,1.89,0,3.27-1.13,3.27-3.02v-3.14h-.13Z"/>
  </g>
  <path id="path36" class="cls-1" d="M49.83,69.13c0-.88-.75-1.64-1.64-1.64h-3.02l-6.92-7.92c-.63-.75-1.64-1.01-2.64-.75l-2.39.75c-.38.13-.5.63-.25.88l7.55,7.17h-11.45c-.38,0-.63.25-.63.63v1.26c0,.88.75,1.64,1.64,1.64h1.76v6.04c0,4.53,2.39,7.17,6.41,7.17,1.26,0,2.26-.13,3.52-.63v4.02c0,1.13.88,2.01,2.01,2.01h1.76c.38,0,.75-.38.75-.75v-17.99h2.89c.38,0,.63-.25.63-.63v-1.26ZM41.78,79.94c-.75.38-1.76.5-2.52.5-2.01,0-3.02-1.01-3.02-3.27v-6.04h5.53v8.8Z"/>
</svg>