<?xml version="1.0" encoding="UTF-8"?>
<svg id="Layer_1" data-name="Layer 1" xmlns="http://www.w3.org/2000/svg" viewBox="0 0 200 150">
  <defs>
    <style>
      .cls-1 {
        fill: #4b4e52;
      }

      .cls-2 {
        fill: #5ce500;
      }
    </style>
  </defs>
  <path class="cls-2" d="M45.04,64.52h0v17.43c0,.41-.27.82-.61,1.02l-.54.34-4.36,2.59-2.93,1.7-.61.34v-18.86l-16.34-9.47,7.76-4.49.75-.41c.41-.2.82-.2,1.23,0l10.76,6.2,4.97,2.86-.07.75h0ZM32.3,71.13l-3.34-1.91-7.83-4.49c-.41-.2-.82-.2-1.23,0l-6.95,3.95-.61.41,11.78,6.81v13.62l6.95-4.02.61-.34c.34-.2.61-.61.61-1.02v-13.01ZM12.35,82.7l8.17,4.7v-9.47l-8.17,4.77Z"/>
  <path class="cls-1" d="M63.02,63.84h-8.85v24.11h3.95v-9.47h4.97c5.38,0,8.38-2.66,8.38-7.42,0-2.18-.82-7.22-8.44-7.22M67.45,71.13c0,2.72-1.43,3.81-4.9,3.81h-4.43v-7.56h4.97c2.93,0,4.36,1.23,4.36,3.75M83.18,70.38l.27.14-.68,3.54-.48-.14c-.34-.14-.75-.2-1.16-.2-3.68,0-4.02,2.93-4.02,6.47v7.76h-3.61v-17.71h3.41v2.11c.95-1.43,2.04-2.18,3.54-2.38,1.02-.14,1.91,0,2.72.41M92.24,69.9c-2.86,0-5.18,1.09-6.67,3.2-1.57,2.18-1.77,4.77-1.77,6.06,0,5.58,3.34,9.19,8.44,9.19,6.27,0,8.44-5.04,8.44-9.33,0-2.45-.75-4.7-2.04-6.33-1.5-1.84-3.75-2.79-6.4-2.79M92.24,85.09c-2.86,0-4.63-2.25-4.63-5.93s1.77-5.99,4.63-5.99,4.7,2.32,4.7,5.93c-.07,3.68-1.84,5.93-4.7,5.99M131.46,70.38l.27.14-.68,3.54-.48-.14c-.34-.14-.75-.2-1.16-.2-3.68,0-4.02,2.93-4.02,6.47v7.76h-3.68v-17.71h3.41v2.11c.95-1.43,2.04-2.18,3.54-2.38,1.02-.07,1.91,0,2.79.41M144.54,82.23l-.07.2c-.75,2.18-2.59,2.66-4.02,2.66-2.79,0-4.56-1.84-4.7-4.84h12.53l.07-.34c.07-.48.07-.95.07-1.43v-.34c-.2-4.97-3.41-8.31-8.04-8.31-2.72,0-4.9,1.09-6.4,3.06-1.23,1.84-1.91,3.95-1.91,6.13,0,5.45,3.41,9.13,8.44,9.13,3.95,0,6.61-1.98,7.63-5.58l.14-.41-3.75.07h0ZM135.89,77.05c.34-2.45,1.98-4.02,4.36-4.02,1.84,0,4.02,1.09,4.29,4.02h-8.65ZM115.12,71.67c-1.16-1.23-2.79-1.84-4.7-1.84-5.38,0-7.83,4.7-7.83,9.13s2.38,9.06,7.83,9.06c1.7,0,3.34-.61,4.56-1.84,0,.75-.07,1.5-.07,1.84-.2,2.93-1.63,4.29-4.43,4.29-1.5,0-3.27-.54-3.61-2.04l-.07-.34h-3.61l.07.48c.41,3.13,3.13,5.04,7.15,5.04,3.54,0,6.06-1.36,7.29-3.88.61-1.23.89-3,.89-5.24v-16.07h-3.47v1.43h0ZM110.62,84.75c-1.29,0-4.22-.54-4.22-5.93,0-3.54,1.63-5.72,4.36-5.72,2.04,0,4.29,1.5,4.29,5.72,0,3.75-1.63,5.93-4.43,5.93M165.31,82.57c0,2.79-2.32,5.65-7.56,5.65-4.63,0-7.36-1.98-7.76-5.65l-.07-.41h3.61l.07.27c.41,2.18,2.52,2.66,4.22,2.66,1.84,0,3.75-.61,3.75-2.25,0-.82-.54-1.43-1.63-1.77-.61-.2-1.43-.41-2.25-.61-1.43-.41-2.93-.82-3.81-1.16-2.25-.82-3.54-2.38-3.54-4.29,0-3.54,3.47-5.18,6.95-5.18,4.63,0,7.01,1.7,7.29,5.31v.34h-3.54l-.07-.27c-.34-2.04-2.38-2.38-3.61-2.38-1.02,0-3.41.2-3.41,1.91,0,.75.68,1.36,2.04,1.7.41.14,1.02.27,1.7.48,1.43.34,3.27.82,4.15,1.16,2.32.89,3.47,2.38,3.47,4.49M182.2,82.64c0,2.79-2.32,5.65-7.56,5.65-4.63,0-7.36-1.98-7.76-5.65l-.07-.34h3.61l.07.27c.41,2.18,2.52,2.66,4.22,2.66,1.84,0,3.75-.61,3.75-2.25,0-.82-.54-1.43-1.63-1.77-.61-.2-1.43-.41-2.25-.61-1.43-.41-2.93-.82-3.81-1.16-2.25-.82-3.54-2.38-3.54-4.29,0-3.54,3.47-5.18,6.95-5.18,4.63,0,7.01,1.7,7.29,5.31v.34h-3.54l-.07-.27c-.34-2.04-2.38-2.38-3.61-2.38-1.02,0-3.41.2-3.41,1.91,0,.75.68,1.36,2.04,1.7.41.14,1.02.27,1.7.48,1.43.34,3.27.82,4.15,1.16,2.38.75,3.47,2.25,3.47,4.43"/>
  <path class="cls-1" d="M185.13,72.08c-1.36,0-2.52-1.09-2.52-2.52s1.09-2.52,2.52-2.52,2.52,1.09,2.52,2.52h0c0,1.36-1.09,2.52-2.45,2.52h-.07M185.13,67.45c-1.16,0-2.11.89-2.11,2.04s.89,2.11,2.04,2.11,2.11-.89,2.11-2.04v-.07c.07-1.09-.82-2.04-1.98-2.11,0,.07-.07.07-.07.07M184.79,70.04v.82h-.75v-2.66h1.23c.48-.07.95.27.95.75v.14c0,.34-.2.68-.48.82l.61.95h-.82l-.48-.82h-.27ZM185.27,68.88h-.41v.61h.41c.14,0,.34-.07.34-.27v-.07c0-.2-.14-.34-.34-.27q0-.07,0,0"/>
</svg>