<?xml version="1.0" encoding="UTF-8"?>
<svg id="Layer_1" data-name="Layer 1" xmlns="http://www.w3.org/2000/svg" viewBox="0 0 200 150">
  <defs>
    <style>
      .cls-1 {
        fill: #040919;
      }
    </style>
  </defs>
  <g>
    <path class="cls-1" d="M39.98,56.67v-7.82c-14.44,0-26.15,11.71-26.15,26.15s11.71,26.15,26.15,26.15v-7.78c-10.15,0-18.36-8.22-18.36-18.36s8.25-18.33,18.36-18.33h0Z"/>
    <path class="cls-1" d="M58.34,75c0,10.15-8.22,18.36-18.36,18.36v-7.78c5.82,0,10.54-4.72,10.54-10.54s-4.72-10.58-10.54-10.58v-7.78c10.15,0,18.36,8.22,18.36,18.33Z"/>
    <path class="cls-1" d="M39.98,64.46v21.12c-5.82,0-10.54-4.72-10.54-10.54s4.72-10.58,10.54-10.58h0Z"/>
  </g>
  <g>
    <path class="cls-1" d="M133.18,72.51c-.93-1.83-2.36-3.36-4.12-4.42s-3.83-1.56-6.22-1.56-4.46.53-6.22,1.56-3.19,2.59-4.12,4.42c-.96,1.9-1.46,4.12-1.46,6.65s.5,4.72,1.46,6.62c.93,1.83,2.36,3.36,4.12,4.39,1.76,1.06,3.83,1.56,6.22,1.56s4.42-.53,6.22-1.56c1.76-1.03,3.19-2.56,4.12-4.39,1-1.9,1.46-4.09,1.46-6.62s-.47-4.72-1.46-6.65ZM129.12,83.45c-.47,1.23-1.26,2.33-2.33,3.13-1.03.77-2.36,1.16-3.96,1.16s-2.89-.4-3.96-1.16c-1.06-.8-1.86-1.9-2.33-3.13-1-2.76-1-5.82,0-8.62.47-1.26,1.26-2.33,2.33-3.16,1.06-.8,2.36-1.2,3.96-1.2s2.89.4,3.96,1.2c1.06.8,1.86,1.9,2.33,3.16,1.03,2.79,1.03,5.82,0,8.62Z"/>
    <path class="cls-1" d="M160.12,72.51c-.93-1.83-2.36-3.36-4.12-4.42s-3.83-1.56-6.22-1.56-4.46.53-6.22,1.56-3.19,2.59-4.12,4.42c-.96,1.9-1.46,4.12-1.46,6.65s.5,4.72,1.46,6.62c.93,1.83,2.36,3.36,4.12,4.39,1.76,1.06,3.83,1.56,6.22,1.56s4.42-.53,6.22-1.56c1.76-1.03,3.19-2.56,4.12-4.39,1-1.9,1.46-4.09,1.46-6.62s-.5-4.72-1.46-6.65ZM156.07,83.45c-.47,1.23-1.26,2.33-2.33,3.13-1.03.77-2.36,1.16-3.96,1.16s-2.89-.4-3.96-1.16c-1.06-.8-1.86-1.9-2.33-3.13-1-2.76-1-5.82,0-8.62.47-1.26,1.26-2.33,2.33-3.16,1.03-.8,2.36-1.2,3.96-1.2s2.89.4,3.96,1.2c1.06.8,1.86,1.9,2.33,3.16,1,2.79,1,5.82,0,8.62Z"/>
    <path class="cls-1" d="M177.65,70.68v-3.83h-5.29v-1.96c0-1.1.23-1.93.73-2.49s1.33-.86,2.49-.86c.5,0,.93.03,1.26.13.33.1.63.17.86.23l1.13-3.86c-.33-.13-.83-.27-1.5-.4-.67-.17-1.5-.23-2.46-.23-1.3,0-2.49.27-3.59.77s-2,1.26-2.66,2.3c-.67,1-1,2.26-1,3.83v2.59h-3.79v3.83h3.79v20.66h4.76v-20.69h5.26Z"/>
    <path class="cls-1" d="M69.85,91.33v-32.66h11.64c2.53,0,4.66.47,6.32,1.4,1.66.93,2.93,2.2,3.76,3.79s1.23,3.39,1.23,5.39-.43,3.83-1.26,5.42c-.83,1.6-2.1,2.86-3.76,3.79s-3.76,1.4-6.29,1.4h-3.66v-4.19h3.19c1.6,0,2.89-.27,3.89-.83s1.73-1.33,2.2-2.3.7-2.06.7-3.29-.23-2.33-.7-3.29c-.47-.96-1.2-1.7-2.23-2.26-1-.53-2.33-.8-3.96-.8h-6.19v6.72h0v21.69h-4.89v.03Z"/>
    <path class="cls-1" d="M96.79,91.33v-24.48h4.62v3.89h.27c.43-1.33,1.23-2.36,2.36-3.09,1.13-.77,2.43-1.16,3.86-1.16.3,0,.67,0,1.06.03s.73.03.96.07v4.56c-.2-.07-.53-.1-1.03-.17s-.96-.1-1.46-.1c-1.13,0-2.13.23-3.03.73-.86.47-1.56,1.13-2.06,1.96s-.77,1.76-.77,2.83v14.94h-4.79Z"/>
  </g>
  <g>
    <path class="cls-1" d="M180.21,87.94c-.03-.23-.13-.4-.33-.53s-.43-.2-.7-.2c-.2,0-.37.03-.53.1-.17.07-.27.17-.33.27s-.13.23-.13.4c0,.13.03.23.1.3s.13.17.23.2c.1.07.2.1.3.13s.2.07.27.1l.47.13c.13.03.27.07.4.13.13.07.3.13.4.23.13.1.23.2.33.37s.13.33.13.53c0,.23-.07.47-.2.67s-.3.37-.57.47-.53.17-.9.17c-.33,0-.6-.07-.83-.17s-.43-.27-.57-.43-.2-.4-.23-.67h.57c0,.17.07.3.17.43s.23.2.37.23.33.07.5.07c.2,0,.4-.03.57-.1s.3-.17.4-.3c.1-.13.13-.27.13-.43,0-.13-.03-.27-.13-.37s-.2-.17-.33-.23-.3-.1-.43-.17l-.57-.17c-.37-.1-.63-.23-.83-.43s-.3-.43-.3-.73c0-.27.07-.47.2-.67s.33-.33.57-.43.5-.17.8-.17.53.07.77.17.4.23.53.43.2.4.2.6l-.47.07h0Z"/>
    <path class="cls-1" d="M181.71,86.81h.67l1.53,3.76h.07l1.53-3.76h.67v4.52h-.5v-3.43h-.03l-1.4,3.43h-.5l-1.4-3.43h-.03v3.43h-.5l-.1-4.52h0Z"/>
  </g>
</svg>