<?xml version="1.0" encoding="UTF-8"?>
<svg id="Layer_1" data-name="Layer 1" xmlns="http://www.w3.org/2000/svg" viewBox="0 0 200 150">
  <defs>
    <style>
      .cls-1 {
        fill: #21317d;
      }

      .cls-2 {
        fill: #ed1c24;
      }
    </style>
  </defs>
  <g id="g18">
    <path id="path27502" class="cls-1" d="M77.11,98.68s-.74.28-2.59.28c-6.66,0-4.44-7.03-8.51-7.03h-.93v6.85h-5.18v-19.98h7.49c5.37,0,8.05,1.85,8.05,6.57,0,2.96-2.04,4.44-3.15,5.09,1.57,1.94,1.48,4.26,3.79,4.26h.93l.09,3.98ZM66.84,88.04c2.13,0,3.61-.83,3.61-2.5s-1.2-2.59-3.24-2.59h-2.04v5.09h1.67Z"/>
    <path id="path27506" class="cls-1" d="M93.76,89.25c1.02.74,1.76,2.04,1.76,3.79,0,4.26-3.15,5.74-6.85,5.74h-9.44v-19.98h8.42c4.07,0,6.48,1.48,6.48,5.46,0,3.42-2.13,3.89-3.24,3.89v.09c.74,0,1.85.28,2.87,1.02M86.45,86.75c1.76,0,2.41-.65,2.41-1.94,0-1.2-.93-1.85-2.78-1.85h-1.67v3.79h2.04ZM87,94.7c1.67,0,2.5-.56,2.5-2.13s-1.11-2.22-2.59-2.22h-2.5v4.35h2.59Z"/>
    <path id="path27510" class="cls-1" d="M97.92,98.77v-19.98h5.18v15.91h8.05v4.07h-13.23Z"/>
    <path id="path27514" class="cls-2" d="M116.23,98.77v-19.98h7.31c4.07,0,6.48,1.57,6.48,5.27s-2.13,4.26-3.15,4.26v.09c1.3,0,4.44,1.11,4.44,4.9,0,4.16-3.33,5.55-7.03,5.55l-8.05-.09ZM123.26,87.21c2.22,0,2.96-1.11,2.96-2.78s-1.11-2.78-3.61-2.78h-2.87v5.55h3.52ZM123.63,95.91c2.04,0,3.79-.65,3.79-3.05,0-2.22-1.67-3.05-3.79-3.05h-3.79v6.11h3.79Z"/>
    <path id="path27518" class="cls-2" d="M145.19,93.69h-7.31l-1.76,5.18h-3.79l7.4-19.98h3.61l7.31,19.98h-3.7l-1.76-5.18ZM138.9,90.82h5.46l-2.78-7.68-2.68,7.68Z"/>
    <path id="path27522" class="cls-2" d="M164.8,98.77l-7.86-13.51v13.51h-3.61v-19.98h3.79l7.86,13.88v-13.88h3.61v19.98h-3.79Z"/>
    <path id="path27526" class="cls-2" d="M189.4,96.09c-2.59,0-2.68-4.35-4.81-6.48-.19-.19-1.2-1.39-2.87-1.85l7.68-8.97h-4.63l-7.68,8.88v-8.97h-3.61v20.07h3.61v-5.64l2.22-2.59h.19c4.26,0,2.87,8.33,8.7,8.33,1.2,0,1.94-.19,1.94-.19v-2.68l-.74.09Z"/>
    <path id="path27530" class="cls-1" d="M19.85,61.4v-12.67h-9.99v30.06c0-7.4,4.07-13.88,9.99-17.39"/>
    <path id="path27534" class="cls-1" d="M31.13,58.81v9.99c4.9.65,8.79,4.81,8.79,9.9,0,5.55-4.44,9.99-9.99,9.99s-9.99-4.44-9.99-9.99h0v17.39c2.96,1.67,6.38,2.68,9.99,2.68,11.1,0,20.07-8.97,20.07-20.07-.09-10.55-8.42-19.33-18.87-19.89"/>
    <path id="path27538" class="cls-2" d="M19.85,61.4c-5.92,3.52-9.99,9.99-9.99,17.39v22.48h9.99v-22.57h0c0-5.09,3.79-9.34,8.79-9.9v-10.08c-3.15.28-6.2,1.2-8.79,2.68"/>
  </g>
</svg>