<?xml version="1.0" encoding="UTF-8"?>
<svg id="Layer_1" data-name="Layer 1" xmlns="http://www.w3.org/2000/svg" viewBox="0 0 200 150">
  <defs>
    <style>
      .cls-1 {
        fill: #38d200;
      }

      .cls-1, .cls-2, .cls-3 {
        fill-rule: evenodd;
      }

      .cls-2 {
        fill: #0473ea;
      }

      .cls-3 {
        fill: #525355;
      }
    </style>
  </defs>
  <g id="Page-1">
    <g id="sc-logo">
      <path id="Combined-Shape" class="cls-1" d="M19.24,73.62l35.67,23.49c2.75,1.81,3.5,5.52,1.73,8.32-1.82,2.87-5.55,3.51-8.23,1.75l-27.49-18.09s-3.45-2-4.24-5.74c-1.04-4.91,2.1-9.16,2.5-9.68l.04-.05h0ZM50.67,55.32c3.24,0,5.86,2.65,5.86,5.92s-2.62,5.92-5.86,5.92c-1.37,0-2.41-.45-3.39-1.09h0l-7.34-4.83,7.34-4.83c.98-.64,1.98-1.09,3.39-1.09Z"/>
      <path id="Combined-Shape-2" data-name="Combined-Shape" class="cls-2" d="M22.31,96.29c1.37,0,2.41.45,3.39,1.09h0l7.34,4.83-7.34,4.83c-.98.64-1.98,1.09-3.39,1.09-3.24,0-5.86-2.65-5.86-5.92s2.62-5.92,5.86-5.92ZM45.64,44.59c1.79,2.78,1.01,6.51-1.75,8.32l-12.66,8.34,21.58,14.21s.08.05.22.14l.19.13c1.02.7,3.63,2.75,4.24,5.78,1.07,5.3-2.54,9.66-2.54,9.66l-32.53-21.42s-4.21-2.57-4.21-8.51,4.21-8.46,4.21-8.46l15.03-9.94c2.75-1.81,6.44-1.02,8.23,1.76Z"/>
      <path id="Combined-Shape-3" data-name="Combined-Shape" class="cls-3" d="M181.4,73.88l2.16,1.33v15.92h-2.16v-2.25c-1.05,1.57-2.73,2.53-4.76,2.53-3.79,0-6.49-2.84-6.49-6.72s2.71-6.86,6.49-6.86c2.02,0,3.71.98,4.76,2.58v-6.53ZM126.45,73.88l2.13,1.33v11.57c0,1.83,1.1,2.55,2.5,2.55,1.05,0,2.1-.29,3.02-.96v2.1c-.89.66-2.13.93-3.21.93-2.76,0-4.44-1.25-4.44-4.78v-12.75ZM162.51,77.79c3.73,0,6.18,2.79,6.18,6.54,0,.37-.03.74-.08,1.09h-10.23c.32,2.37,2.16,3.93,4.73,3.93,1.66,0,3.26-.48,4.63-1.46v2.07c-1.39.96-2.97,1.41-4.63,1.41-4.08,0-6.99-2.66-6.99-6.67s2.47-6.91,6.39-6.91ZM107.77,77.79c2.02,0,3.68.96,4.76,2.53v-2.29h2.16v13.1h-2.16v-2.23c-1.08,1.54-2.73,2.47-4.76,2.47-3.79,0-6.49-2.84-6.49-6.72s2.71-6.86,6.49-6.86ZM81.03,77.79c1.55,0,3,.45,4.15,1.33v2.42c-1.03-1.12-2.45-1.7-4.02-1.7-2.76,0-4.71,1.94-4.71,4.73s1.97,4.76,4.73,4.76c1.55,0,3-.43,4.13-1.41v2.21c-1.26.88-2.76,1.25-4.34,1.25-3.97,0-6.73-2.79-6.73-6.8s2.84-6.78,6.78-6.78ZM140.58,77.79c3.73,0,6.18,2.79,6.18,6.54,0,.37-.03.74-.08,1.09h-10.23c.32,2.37,2.16,3.93,4.73,3.93,1.66,0,3.26-.48,4.63-1.46v2.07c-1.39.96-2.97,1.41-4.63,1.41-4.08,0-6.99-2.66-6.99-6.67s2.47-6.91,6.39-6.91ZM87.68,73.88l2.13,1.33v5.06c.97-1.52,2.52-2.47,4.5-2.47,3.26,0,5,2.42,5,5.64v7.71h-2.16v-7.34c0-2.55-1.1-3.91-3.37-3.91-2.39,0-3.97,2.07-3.97,4.68v6.57h-2.13v-17.26ZM124.86,77.79v2.47c-2.58-.37-4.73,1.38-4.73,4.63v6.25h-2.13v-13.1h2.13v2.79c1.03-1.94,2.68-3.03,4.73-3.03ZM155.97,77.79v2.47c-2.58-.37-4.73,1.38-4.73,4.63v6.25h-2.13v-13.1h2.13v2.79c1.03-1.94,2.68-3.03,4.73-3.03ZM176.85,79.88c-2.63,0-4.5,2.02-4.5,4.78s1.87,4.7,4.5,4.7,4.55-1.99,4.55-4.7-1.89-4.78-4.55-4.78ZM107.98,79.84c-2.63,0-4.5,2.02-4.5,4.78s1.87,4.7,4.5,4.7,4.55-1.99,4.55-4.7-1.89-4.78-4.55-4.78ZM140.61,79.79c-2.37,0-3.79,1.67-4.13,3.88h8.02c-.21-2.23-1.6-3.88-3.89-3.88ZM162.54,79.79c-2.37,0-3.79,1.67-4.13,3.88h8.02c-.21-2.23-1.6-3.88-3.89-3.88ZM130.24,77.85c.55-.35,1.25-.35,1.79.02h0l2.15,1.44-2.12,1.37c-.54.35-1.23.35-1.77,0h0l-.05-.03c-1.01-.65-1.01-2.15,0-2.81ZM100.2,58.63c2.02,0,3.68.96,4.76,2.53v-2.29h2.16v13.1h-2.16v-2.23c-1.08,1.54-2.73,2.47-4.76,2.47-3.79,0-6.49-2.84-6.49-6.72s2.71-6.86,6.49-6.86ZM87.52,54.67v12.92c0,1.83,1.1,2.55,2.5,2.55,1.05,0,2.1-.29,3.02-.96v2.1c-.89.66-2.13.93-3.21.93-2.76,0-4.44-1.25-4.44-4.78v-11.43l2.13-1.33ZM176.87,54.67v17.3h-2.16v-2.29c-1.05,1.57-2.73,2.53-4.76,2.53-3.79,0-6.49-2.84-6.49-6.72s2.71-6.86,6.49-6.86c2.02,0,3.71.98,4.76,2.58v-5.21l2.16-1.33ZM146.24,58.63c2.02,0,3.68.96,4.76,2.53v-2.29h2.16v13.1h-2.16v-2.23c-1.08,1.54-2.73,2.47-4.76,2.47-3.79,0-6.49-2.84-6.49-6.72s2.71-6.86,6.49-6.86ZM78.9,58.63c1.52,0,2.94.43,3.94,1.2v2.26c-1.18-1.06-2.63-1.67-3.92-1.67-1.37,0-2.34.64-2.34,1.7,0,.8.37,1.28,1.39,1.67l3.08,1.25c1.66.72,2.42,1.73,2.42,3.14,0,2.5-2,4.04-4.81,4.04-1.71,0-3.26-.48-4.39-1.33v-2.34c1.37,1.3,2.89,1.89,4.42,1.89s2.63-.66,2.63-1.86c0-.72-.37-1.28-1.34-1.67l-3.08-1.25c-1.58-.69-2.45-1.59-2.45-3.3,0-2.29,1.81-3.72,4.44-3.72ZM137.43,54.67v17.3h-2.16v-2.29c-1.05,1.57-2.73,2.53-4.76,2.53-3.79,0-6.49-2.84-6.49-6.72s2.71-6.86,6.49-6.86c2.02,0,3.71.98,4.76,2.58v-5.21l2.16-1.33ZM163.33,58.63v2.47c-2.58-.37-4.73,1.38-4.73,4.63v6.25h-2.13v-13.1h2.13v2.79c1.03-1.94,2.68-3.03,4.73-3.03ZM117.05,58.63c3.26,0,5,2.42,5,5.64v7.71h-2.16v-7.34c0-2.55-1.1-3.91-3.37-3.91-2.39,0-3.97,2.07-3.97,4.68v6.57h-2.13v-13.1h2.13v2.23c.97-1.52,2.52-2.47,4.5-2.47ZM100.41,60.68c-2.63,0-4.5,2.02-4.5,4.78s1.87,4.7,4.5,4.7,4.55-1.99,4.55-4.7-1.89-4.78-4.55-4.78ZM130.72,60.68c-2.63,0-4.5,2.02-4.5,4.78s1.87,4.7,4.5,4.7,4.55-1.99,4.55-4.7-1.89-4.78-4.55-4.78ZM170.16,60.68c-2.63,0-4.5,2.02-4.5,4.78s1.87,4.7,4.5,4.7,4.55-1.99,4.55-4.7-1.89-4.78-4.55-4.78ZM146.45,60.68c-2.63,0-4.5,2.02-4.5,4.78s1.87,4.7,4.5,4.7,4.55-1.99,4.55-4.7-1.89-4.78-4.55-4.78ZM90.49,58.85c.54-.35,1.23-.35,1.77,0h0l.05.03c1.02.65,1.02,2.15,0,2.81-.55.35-1.25.35-1.79-.01h0l-2.15-1.44,2.11-1.38Z"/>
    </g>
  </g>
</svg>