<?xml version="1.0" encoding="UTF-8"?>
<svg id="Layer_1" data-name="Layer 1" xmlns="http://www.w3.org/2000/svg" viewBox="0 0 200 150">
  <defs>
    <style>
      .cls-1 {
        fill: #fe5005;
      }

      .cls-2 {
        fill: #fff;
        fill-rule: evenodd;
      }
    </style>
  </defs>
  <path class="cls-1" d="M89.28,85.6c-2.13,0-3.92-.46-5.38-1.37-1.46-.93-2.5-2.23-3.13-3.89l4.19-2.43c.85,1.96,2.34,2.95,4.46,2.95,1.93,0,2.89-.58,2.89-1.73,0-.65-.31-1.13-.94-1.46-.65-.38-1.8-.8-3.46-1.24-1.7-.47-3.14-1.13-4.31-2-1.3-1.05-1.94-2.54-1.94-4.46s.7-3.53,2.09-4.7c1.42-1.18,3.1-1.76,5.04-1.76,1.74,0,3.28.41,4.61,1.24,1.33.81,2.39,1.99,3.16,3.55l-4.1,2.4c-.77-1.64-1.99-2.46-3.67-2.46-.71,0-1.27.15-1.67.46-.4.3-.61.69-.61,1.15,0,.5.25.96.73,1.37.53.4,1.56.83,3.1,1.28l1.97.64c.5.16,1.1.44,1.76.82.73.36,1.28.76,1.64,1.19.97,1.05,1.46,2.37,1.46,3.95,0,2-.73,3.6-2.18,4.79-1.46,1.15-3.36,1.73-5.71,1.73,0,0,0,0,0,0ZM112.76,78.13l2.18-8.14h4.86l-4.86,15.18h-4.25l-2.43-8.11-2.43,8.11h-4.25l-4.86-15.18h4.86l2.18,8.14,2.37-8.14h4.25l2.37,8.14h.01ZM125.19,67.87c-.5.52-1.19.8-1.91.79-.73,0-1.43-.28-1.94-.79-.51-.52-.8-1.22-.79-1.94,0-.75.26-1.39.79-1.91.55-.55,1.19-.82,1.94-.82s1.39.27,1.91.82c.55.53.82,1.16.82,1.91s-.27,1.4-.82,1.95ZM125.56,85.18h-4.56v-15.18h4.56v15.18h0ZM139.42,71.54v-1.55h4.43v14.42c0,2.39-.78,4.19-2.34,5.4-1.54,1.23-3.43,1.85-5.68,1.85-3.44,0-5.84-1.22-7.19-3.67l3.89-2.25c.71,1.28,1.86,1.92,3.46,1.92,1.09,0,1.93-.28,2.52-.85.61-.57.91-1.37.91-2.4v-1.4c-1.07,1.31-2.55,1.97-4.43,1.97-2.13,0-3.91-.75-5.34-2.25-1.42-1.5-2.13-3.32-2.13-5.47s.71-3.95,2.13-5.43c1.42-1.52,3.2-2.27,5.34-2.27,1.88,0,3.36.66,4.43,1.97ZM133.11,79.83c.71.65,1.59.97,2.64.97s1.93-.32,2.64-.97c.69-.63,1.03-1.48,1.03-2.55s-.35-1.92-1.03-2.55c-.71-.65-1.59-.97-2.64-.97s-1.93.32-2.64.97c-.69.63-1.03,1.48-1.03,2.55s.35,1.92,1.03,2.55h0ZM157.73,71.54v-1.55h4.43v14.42c0,2.39-.78,4.19-2.34,5.4-1.54,1.23-3.43,1.85-5.68,1.85-3.44,0-5.84-1.22-7.2-3.67l3.89-2.25c.71,1.28,1.86,1.92,3.46,1.92,1.1,0,1.93-.28,2.52-.85.61-.57.91-1.37.91-2.4v-1.4c-1.07,1.31-2.55,1.97-4.43,1.97-2.13,0-3.91-.75-5.34-2.25-1.42-1.5-2.13-3.32-2.13-5.47s.71-3.95,2.13-5.43c1.42-1.52,3.2-2.27,5.34-2.27,1.88,0,3.36.66,4.43,1.97h0ZM151.41,79.83c.71.65,1.59.97,2.64.97s1.93-.32,2.64-.97c.69-.63,1.03-1.48,1.03-2.55s-.35-1.92-1.03-2.55c-.71-.65-1.59-.97-2.64-.97s-1.93.32-2.64.97c-.69.63-1.03,1.48-1.03,2.55s.35,1.92,1.03,2.55h0ZM171.61,79.29l2.86-9.29h4.86l-5.19,14.73c-.85,2.37-1.97,4.07-3.37,5.1-1.38,1.05-3.14,1.53-5.28,1.43v-4.25c1.05,0,1.86-.19,2.43-.58.57-.37,1.02-1.01,1.37-1.94l-6.04-14.48h5.01s3.37,9.29,3.37,9.29ZM20.68,75c0-10.37,0-15.56,2.8-19.09.62-.78,1.33-1.49,2.11-2.11,3.53-2.8,8.72-2.8,19.09-2.8s15.56,0,19.09,2.8c.78.62,1.49,1.33,2.11,2.11,2.8,3.53,2.8,8.72,2.8,19.09s0,15.56-2.8,19.09c-.62.78-1.33,1.49-2.11,2.11-3.53,2.8-8.72,2.8-19.09,2.8s-15.56,0-19.09-2.8c-.78-.62-1.49-1.33-2.11-2.11-2.8-3.53-2.8-8.72-2.8-19.09Z"/>
  <path class="cls-2" d="M46.49,70.03v-4.97c0-.32-.26-.58-.59-.59-.32,0-.58.26-.58.59v5.84c0,.33.27.59.59.59h.57c8.3,0,9.16.43,8.65,2.18-.02.09-.05.17-.08.26v.05c-2.19,6.57-8.09,14.79-9.83,17.15-.2.27-.58.33-.85.13-.05-.04-.09-.08-.13-.13-1.05-1.42-3.62-4.99-5.97-9.04-.16-.37-.24-1.23,2.37-1.23h3.19c.18,0,.32.14.32.32v2.57c0,.31.23.59.53.62.17.01.34-.05.47-.17.11-.11.18-.26.17-.41v-3.49c0-.33-.27-.6-.6-.6h-6.44c-1.12,0-1.81-.96-2.25-1.83-1.4-2.94-2.4-5.84-2.4-8.12,0-5.85,4.67-11.12,11.11-11.12,5.74,0,10.08,4.17,10.96,9.22,0,.04.04.24.04.27.23,2.48-6.23,2.19-8.95,2.21-.16,0-.29-.13-.29-.28,0,0,0,0,0,0,0,0,0,0,0,0Z"/>
</svg>