<?xml version="1.0" encoding="UTF-8"?>
<svg id="Layer_1" data-name="Layer 1" xmlns="http://www.w3.org/2000/svg" viewBox="0 0 200 150">
  <defs>
    <style>
      .cls-1 {
        fill: #64b868;
      }

      .cls-2 {
        fill: #1681d0;
      }
    </style>
  </defs>
  <path class="cls-2" d="M16.49,62.58l24.9-.02c.57.05.87.48.86,1.03-.06,4.1-3.31,8.59-6.8,10.52-8.13,4.5-18.79-.79-19.64-10.08-.06-.65-.08-1.29.69-1.46Z"/>
  <path class="cls-2" d="M165.98,71.42c-1.46-1.46-4.09-.3-5.36.89.14,2.7.04,5.43.07,8.14-.11.61-1.96.61-2.07,0-.12-2.18.15-4.51,0-6.67-.07-1.05-.38-2.15-1.36-2.69-1.53-.84-3.8.02-4.78,1.35-.16,2.45.21,5.15,0,7.57-.02.18-.1.68-.24.77-.23.15-1.64.21-1.79-.19v-11.18c.13-.36.47-.37.81-.36.9.02.7.43.94,1.05.03.07-.02.19.14.12.28-.11.83-.67,1.22-.86,1.46-.72,3.4-.82,4.87-.08.66.33.99.84,1.5,1.3,1.49-1.11,3.03-1.95,4.97-1.81,5.7.44,3.64,7.88,4,11.65-.06.56-1.25.5-1.65.42-.28-.05-.38-.33-.41-.58-.25-2.16.66-7.35-.84-8.85Z"/>
  <path class="cls-2" d="M130.53,69.41v-8.7c0-.08.31-.44.42-.48.38-.11,1.65-.14,1.65.48v19.47c.15.75-1.01.83-1.44.63-.34-.16-.33-1.13-.5-1.13-2.45,2.39-6.03,1.83-7.88-.97-2.1-3.16-1.18-8.47,2.73-9.68,1.73-.53,3.35-.23,5.01.36ZM127.08,70.79c-5.13.58-3.91,9.64,1.11,8.41,1-.25,1.69-.97,2.3-1.76l.05-5.73c-.05-.44-1.08-.68-1.48-.77-.66-.15-1.29-.22-1.97-.14Z"/>
  <path class="cls-2" d="M177.84,78.33c.16.15.15-.06.19-.13,1.46-2.86,2.59-5.98,4.05-8.84.36-.48,2.38-.57,2.13.32l-9.18,19.77c-.36.54-2.51.59-2.07-.44l3.78-8.19-5.38-10.85c-.12-.31-.34-.55-.01-.8.3-.22,2.02-.31,2.2.23l4.3,8.92Z"/>
  <path class="cls-2" d="M138.11,75.54c-.03,1.09.7,2.27,1.53,2.93,1.31,1.04,3.03.98,4.51.36.44-.18,1.18-.85,1.54-.55.25.21.82.98.67,1.31-.4.87-3.41,1.6-4.33,1.63-5.37.18-7.75-6.11-4.87-10.18s9.51-2.56,9.97,2.38c.05.52.18,2.12-.59,2.12h-8.44ZM145.06,73.83c-.29-4.41-6.55-4.2-6.95,0h6.95Z"/>
  <path class="cls-1" d="M22.47,84.82c-.32-2.22,1.26-4.58,3.13-5.66,3.6-2.08,8.36-.36,9.64,3.59.1.3.58,2.07.09,2.07h-12.86Z"/>
  <path class="cls-2" d="M90.99,72.43c-.06-.59-.36-1.41-.94-1.67-.88-.4-2.74-.02-3.68.21-.25.06-.85.34-1.02.33-.39-.02-.81-1.28-.59-1.58.34-.46,3.02-.91,3.66-.94,3.22-.19,4.38.92,4.57,4.1.14,2.41-.12,4.97,0,7.4-.05.4-.19.54-.59.59-1.19.15-.96-.28-1.36-1.17-2.42,2.48-7.03,1.96-7.27-2.02s4.1-4.91,7.23-3.93c-.03-.42.04-.89,0-1.31ZM86.24,78.84c1.16,1.1,3.47.35,4.44-.69.57-.61.26-1.91.27-2.71-1.16-.62-3.51-.72-4.55.14-.9.75-1.01,2.44-.16,3.25Z"/>
  <path class="cls-2" d="M116.92,80.75c-.17-.17-.2-.83-.34-1.06-2.25,2.23-6.53,2.16-7.24-1.42-.87-4.37,3.83-5.64,7.2-4.53-.01-.81,0-2.3-.73-2.83-.77-.57-2.71-.23-3.62-.02-.32.07-1.15.42-1.36.41-.37-.03-.7-1.2-.56-1.51.21-.46,2.27-.82,2.81-.89,3.09-.39,5.12.06,5.36,3.54.18,2.6-.14,5.4,0,8.02-.02.55-1.31.5-1.51.3ZM113.27,75.02c-3.23.43-2.73,5.4,1.2,4.17.67-.21,1.99-.96,2.08-1.71.03-.29.04-1.95-.09-2.08-.43-.42-2.57-.46-3.18-.38Z"/>
  <path class="cls-1" d="M78.65,80.74c-.1-.08-.19-.33-.21-.47-.28-2.21.55-6.48-.43-8.31-1.17-2.19-4.56-.98-5.93.42l-.07,8.05c-.15.65-2.17.68-2.06-.16.24-3.4-.31-7.21,0-10.56.05-.51.16-.63.68-.68,1.06-.09.88.24,1.13,1.04.03.09-.06.17.14.13.15-.02.8-.55,1.04-.68,1.73-.94,4.42-1.16,6.04.1,2.58,2,1.33,7.76,1.63,10.63.14.78-1.69.68-1.96.47Z"/>
  <path class="cls-1" d="M63.9,79.69c-1.77,1.54-4.56,2.12-6.62.8-1.26-.81-1.77-2.48-1.87-3.91-.16-2.31.08-4.84.05-7.16.23-.5,1.81-.55,1.99,0,.18,2.15-.1,4.41.04,6.54.1,1.5.57,3.04,2.3,3.2,1.51.14,2.91-.49,3.88-1.63l.07-8.05c.15-.66,2.06-.65,1.97.16v10.82c-.08.49-.94.5-1.3.39-.33-.1-.43-.86-.52-1.15Z"/>
  <path class="cls-2" d="M106.49,71.63c-.11.14-.92.75-1.09.73-.21-.02-.98-.86-1.29-1.05-2.59-1.56-5.64.5-5.8,3.37-.19,3.32,3.24,5.87,6.11,3.85.8-.56,1.1-1.67,2.19-.69.65.59-.13,1.38-.59,1.83-4.5,4.45-12.12-1.24-9.23-7.42,1.48-3.16,5.93-4.72,8.79-2.4.48.39,1.43,1.16.92,1.77Z"/>
</svg>