<?xml version="1.0" encoding="UTF-8"?>
<svg id="Layer_1" data-name="Layer 1" xmlns="http://www.w3.org/2000/svg" viewBox="0 0 200 150">
  <defs>
    <style>
      .cls-1 {
        fill: #d52b1e;
      }
    </style>
  </defs>
  <path class="cls-1" d="M173.22,68.04h-4.04l6.14,13.17h3.26l12.31-26.36h-4.01l-9.93,21.24-3.73-8.05Z"/>
  <path d="M144.29,94.29h7.99v-14.63c0-3.35,1.94-5.7,4.81-5.7s4.2,1.94,4.2,4.73v15.6h7.99v-17.12c0-5.81-3.49-9.9-9.13-9.9-3.6,0-6.11,1.55-7.99,4.37h-.17v-3.6h-7.75l.03,26.25ZM128.57,67.32c-8.35,0-13.94,6-13.94,13.91s5.59,13.91,13.94,13.91,13.94-6.06,13.94-13.91c.03-7.91-5.59-13.91-13.94-13.91ZM128.52,89.23c-3.79,0-5.81-3.18-5.81-7.99s1.99-7.99,5.81-7.99,5.89,3.13,5.89,7.99c.03,4.81-2.07,7.99-5.89,7.99ZM91.84,94.29h22.46v-6.31h-12.72v-.17l12.17-13.64v-6.17h-21.91v6.33h12.31v.17l-12.31,13.75v6.03ZM81.58,94.29h8.05v-26.25h-8.05v26.25ZM62.91,94.29h8.02v-12.06c0-5.48,3.29-7.91,8.3-7.22h.17v-6.92c-.41-.17-.89-.19-1.63-.19-3.13,0-5.23,1.44-7.03,4.51h-.17v-4.37h-7.66v26.25ZM48.19,89.26c-3.54,0-5.7-2.3-6.11-5.84h18.92c.06-5.64-1.44-10.15-4.56-12.97-2.21-2.05-5.12-3.18-8.82-3.18-7.91,0-13.39,6-13.39,13.86s5.23,13.94,13.91,13.94c3.29,0,5.89-.89,8.05-2.35,2.3-1.58,3.96-3.9,4.4-6.2h-7.69c-.75,1.71-2.35,2.74-4.7,2.74ZM47.78,72.99c2.82,0,4.76,2.1,5.09,5.17h-10.73c.64-3.1,2.32-5.17,5.64-5.17h0ZM18.23,94.29h8.41l9.13-26.25h-8.05l-5.12,16.87h-.11l-5.12-16.87h-8.27l9.13,26.25ZM81.58,58.69h8.05v7.14h-8.05v-7.14Z"/>
</svg>