<?xml version="1.0" encoding="UTF-8"?>
<svg id="Layer_1" data-name="Layer 1" xmlns="http://www.w3.org/2000/svg" viewBox="0 0 200 150">
  <path d="M77.74,71.46c1.57,0,2.41,1.13,2.54,2.59h-5.11c.14-1.37.89-2.59,2.57-2.59M80.56,77.8c-.16.3-.76,1.55-2.67,1.55-1.53,0-2.62-1.2-2.73-2.87h8.62v-1.07c0-3.2-1.91-6.45-6.05-6.45-3.72,0-6.07,2.79-6.07,6.45s2.3,6.45,6.21,6.45c3.42,0,4.74-2.04,5.05-2.71l-2.37-1.36ZM46.44,71.46c1.57,0,2.41,1.13,2.54,2.59h-5.11c.14-1.37.89-2.59,2.57-2.59M49.26,77.8c-.16.3-.76,1.55-2.67,1.55-1.54,0-2.62-1.2-2.73-2.87h8.61v-1.07c0-3.2-1.91-6.45-6.05-6.45-3.72,0-6.06,2.79-6.06,6.45s2.3,6.45,6.21,6.45c3.42,0,4.74-2.04,5.05-2.71l-2.37-1.36ZM38,63.99l-3.18,12.48-3.18-12.48h-4.39l-3.28,12.84-3.28-12.84h-3.71l4.53,17.52h4.65l3.17-12.41,3.17,12.41h4.39l4.53-17.52h-3.41ZM61.17,72.74l2.24-1.52c-.29-.49-1.49-2.27-4.98-2.27-2.61,0-4.78,1.34-4.78,3.71,0,2.21,1.6,3.27,3.37,3.81.53.16,1.05.31,1.52.46.95.3,1.68.56,1.68,1.3,0,.65-.72,1.11-1.99,1.11-1.64,0-2.39-.99-2.66-1.41l-2.36,1.32c.23.57,1.5,2.6,5.24,2.6,2.85,0,5.27-1.2,5.27-3.87,0-2.22-1.59-3.27-3.46-3.84-.47-.15-.94-.29-1.37-.42-.85-.26-1.75-.49-1.75-1.3,0-.59.56-.97,1.6-.97,1.62,0,2.18.93,2.42,1.27M92.74,68.96c-3.17,0-3.91,1.78-4.15,2.34h-.05v-1.98h-3.15v12.18h3.51v-6.04c0-2.62,1.74-3.7,3.84-3.7v-2.8ZM97.42,69.32h-3.49v12.18h3.51v-7.33c0-1.46.78-2.43,2.17-2.43,1.57,0,2.2,1.16,2.2,2.43v7.33h3.51v-8.14c0-2.51-1.4-4.4-4.36-4.4-2.42,0-3.26,1.44-3.49,1.84h-.05v-1.48ZM65.17,66.26h3.49v3.06h2.74v2.43h-2.74v5.95c0,1.05.63,1.78,1.69,1.78.57,0,.89-.06.98-.08v2.1c-.18.06-1.13.36-2.42.36-2.84,0-3.74-1.82-3.74-4.12v-11.48M150.08,63.69c-1.08,0-1.96.88-1.96,1.96.02,1.08.91,1.95,2,1.93,1.06-.02,1.91-.87,1.93-1.93,0-1.08-.88-1.96-1.96-1.96M148.28,69.32h3.6v12.18h-3.6v-12.18ZM130.52,63.69c-1.08-.02-1.98.84-2,1.92s.84,1.98,1.93,2c.02,0,.05,0,.07,0,1.08-.02,1.95-.91,1.93-1.99-.02-1.06-.87-1.91-1.93-1.93M128.72,69.32h3.6v12.18h-3.6v-12.18ZM164.61,77.71c0,1.02.75,1.64,1.77,1.64,1.52,0,2.15-1.26,2.15-2.69v-.74h-1.38c-1.84,0-2.54.77-2.54,1.79M161.45,71.12c.34-.43,1.55-2.16,4.79-2.16,3.02,0,5.81,1.35,5.81,4.82v7.72h-3.41v-1.22h-.05c-.18.24-1.03,1.58-3.49,1.58-2.28,0-3.98-1.57-3.98-3.95,0-2.8,2.32-4.11,5.87-4.11h1.55v-.27c0-1.32-.98-2.07-2.55-2.07-1.39,0-2.18.77-2.5,1.21l-2.03-1.55ZM140.08,78.64c-1.99,0-2.36-1.95-2.36-3.53,0-1.8.5-3.53,2.36-3.53s2.35,1.73,2.35,3.53c0,1.58-.41,3.53-2.35,3.53M142.43,69.32v1.31h-.05c-.21-.38-1.08-1.67-3.34-1.67-3.73,0-5.09,3.04-5.09,6.15s1.36,6.15,5.09,6.15c2.31,0,3.16-1.35,3.34-1.67h.05v1.39c0,1.67-1.19,2.72-2.58,2.72-1.59,0-2.43-1.07-2.66-1.48-.31.16-2.35,1.38-2.35,1.38.25.51,1.3,2.71,5.13,2.71,4.03,0,5.96-2.58,5.96-6.18v-10.8h-3.49ZM181.5,80.23c.21,0,.31-.13.31-.27s-.09-.27-.31-.27h-.27v.54h.27ZM181.23,80.47v.74h-.3v-1.77h.56c.36,0,.64.14.64.49,0,.26-.17.38-.34.41h0c.18.05.26.16.28.36l.06.52h-.3s-.02-.21-.04-.32c-.04-.32-.14-.43-.37-.43h-.19ZM182.75,80.35c0-.69-.56-1.24-1.24-1.24-.69,0-1.25.55-1.25,1.24,0,.69.56,1.25,1.25,1.25s1.24-.56,1.24-1.25M179.99,80.35c0-.83.68-1.51,1.51-1.51,0,0,0,0,0,0,.84,0,1.51.67,1.51,1.51s-.67,1.51-1.51,1.51c-.83,0-1.51-.67-1.52-1.51h0M174.44,63.98h3.6v17.52h-3.6v-17.52ZM115.8,78.59h1.99c4.56,0,5.22-3.06,5.22-5.85s-.7-5.85-5.22-5.85h-1.99v11.69ZM112.03,63.98h5.97c5.45,0,8.87,2.67,8.87,8.76s-3.3,8.76-8.87,8.76h-5.97v-17.52ZM154.15,66.26h3.49v3.06h2.75v2.43h-2.75v5.95c0,1.05.63,1.78,1.69,1.78.57,0,.89-.06.98-.08v2.1c-.18.06-1.13.36-2.41.36-2.84,0-3.74-1.82-3.74-4.12v-11.48"/>
</svg>