<?xml version="1.0" encoding="UTF-8"?>
<svg id="Layer_1" data-name="Layer 1" xmlns="http://www.w3.org/2000/svg" xmlns:xlink="http://www.w3.org/1999/xlink" viewBox="0 0 200 150">
  <defs>
    <style>
      .cls-1 {
        fill: none;
      }

      .cls-2 {
        fill: #f2cb67;
      }

      .cls-3 {
        clip-path: url(#clippath);
      }
    </style>
    <clipPath id="clippath">
      <rect class="cls-1" x="10.12" y="51.55" width="179.76" height="46.89"/>
    </clipPath>
  </defs>
  <g class="cls-3">
    <g>
      <path d="M189.72,61.12h-3.65c-.09,0-.16.07-.16.16v3.74c0,.09.07.16.16.16h3.65c.09,0,.16-.07.16-.16v-3.74c0-.09-.07-.16-.16-.16ZM88.77,67.31h-3.41c-.08,0-.14.05-.19.16l-4.17,13.12c-.08.18-.26.18-.34,0l-4.17-13.12c-.05-.12-.12-.16-.19-.16h-3.47c-.13,0-.18.05-.13.16l5.42,16.14c.26.85.55,1.64.55,2.31,0,.97-.48,1.62-1.9,1.62h-3.87c-.12,0-.16.05-.16.16v2.83c0,.12.05.18.16.18h4.57c3.08,0,4.13-1.35,5.28-4.75l6.18-18.47c.02-.12-.03-.16-.16-.16h0,0ZM96.58,66.96c-4.99,0-8.06,3.5-8.06,8.74s3.13,8.73,8.06,8.73c1.87,0,3.49-.45,4.86-1.35,1.35-.87,2.3-2.23,2.65-3.8v-.03c0-.08-.05-.13-.16-.13h-3.41c-.12,0-.18.05-.23.16-.63,1.23-1.82,1.93-3.71,1.93-2.61,0-4.32-1.9-4.32-4.02,0-.12.05-.16.16-.16h11.94c.07,0,.12-.05.16-.16.09-.38.14-.77.13-1.17,0-5.17-3.08-8.74-8.07-8.74h0ZM100.65,74.15h-8.23c-.12-.02-.16-.07-.16-.18,0-1.39,1.37-3.75,4.32-3.75s4.23,2.16,4.23,3.75c0,.12-.05.18-.16.18h0,0ZM110.17,60.72h-3.2c-.12,0-.18.05-.18.16v23.06c.02.12.07.16.18.16h3.2c.12,0,.16-.05.16-.16v-23.05c0-.12-.05-.16-.16-.16h0ZM117.03,60.72h-3.2c-.12,0-.18.05-.18.16v23.06c.02.12.07.16.18.16h3.2c.07.01.15-.03.16-.11,0-.02,0-.03,0-.05v-23.05c0-.12-.05-.16-.16-.16h0ZM127.56,66.96c-5.17,0-8.19,3.5-8.19,8.74s3.01,8.73,8.19,8.73,8.23-3.54,8.23-8.73-3.07-8.74-8.23-8.74ZM131.03,79.71c-.79,1.01-1.95,1.51-3.47,1.51s-2.61-.5-3.41-1.51c-.81-1.01-1.21-2.34-1.21-4.01s.4-3,1.21-3.99c.79-.99,1.94-1.49,3.41-1.49s2.7.5,3.49,1.49,1.18,2.32,1.18,3.99-.4,3-1.19,4.01ZM160.6,67.31h-3.21c-.13,0-.21.07-.22.19l-2.75,13.09c-.08.21-.28.13-.32,0l-3.18-13.09c-.05-.13-.13-.19-.26-.19h-4.54c-.13,0-.21.07-.26.19l-3.18,13.09c-.08.18-.28.18-.32,0l-2.75-13.09c-.05-.13-.13-.19-.21-.19h-3.26c-.16,0-.22.07-.18.19l3.91,16.44c.05.12.12.16.19.16h4.89c.1,0,.16-.05.21-.16l3.04-13.06c.02-.09.12-.15.21-.13.06.02.11.07.13.13l3.07,13.06c.05.12.1.16.16.16h4.92c.1,0,.16-.05.21-.16l3.89-16.44c.02-.13-.05-.19-.19-.19,0,0,0,0,0,0ZM165.32,79.23h-4.47c-.09,0-.16.07-.16.16v4.56c0,.09.07.16.16.16h4.47c.09,0,.16-.07.16-.16v-4.56c0-.09-.07-.16-.16-.16h0ZM184.52,81.06h-.73c-.71,0-1.14-.47-1.14-1.11v-6.81c0-2.08-.66-3.63-1.99-4.65s-3.13-1.53-5.42-1.53c-3.84,0-7.28,1.95-7.28,5.85,0,.12.05.16.16.16h3.21c.12,0,.16-.05.16-.16.02-.71.34-1.38.89-1.83.56-.5,1.52-.76,2.85-.76,3.57,0,3.86,1.74,3.86,2.76,0,.39-.34.92-1.05.92h-3.41c-4.84,0-7.25,2.31-7.25,5.22,0,1.54.55,2.82,1.63,3.81s2.73,1.49,4.96,1.49c1.4,0,2.58-.21,3.52-.63.94-.4,1.61-.85,2.04-1.28.04-.08.13-.11.21-.07.04.02.07.06.08.1.58,1.02,1.52,1.56,3.37,1.56h1.33c.12,0,.16-.05.16-.16v-2.73c0-.12-.05-.16-.16-.16h0s0,0,0,0ZM179.09,77.2c0,1.86-1.4,4.02-5.12,4.02-2.32,0-3.04-1.17-3.04-2.09,0-1.02.53-2.34,3.8-2.34h4.2c.12.02.16.07.16.18v.23h0s0,0,0,0ZM189.4,67.31h-3.2c-.12,0-.18.05-.18.16v16.48c.02.12.07.16.18.16h3.2c.12,0,.16-.05.16-.16v-16.48c0-.12-.05-.16-.16-.16Z"/>
      <path class="cls-2" d="M61,51.55h-15.72c-.62,0-1.19.35-1.47.91l-10.45,20.91v-20.17c0-.91-.74-1.65-1.65-1.65H11.77c-.91,0-1.65.74-1.65,1.65v14.25c0,.91.74,1.65,1.65,1.65h16.41c.25,0,.48.12.63.31l3.98,4.84c.05.06.06.15.03.23l-10.79,21.58c-.55,1.1.25,2.39,1.47,2.39h15.72c.62,0,1.19-.35,1.47-.91l21.79-43.59c.55-1.1-.25-2.39-1.47-2.39Z"/>
    </g>
  </g>
</svg>