<?xml version="1.0" encoding="UTF-8"?>
<svg id="Layer_1" data-name="Layer 1" xmlns="http://www.w3.org/2000/svg" viewBox="0 0 200 150">
  <defs>
    <style>
      .cls-1 {
        fill: #d94148;
      }
    </style>
  </defs>
  <g id="g10">
    <g id="g12">
      <path id="path14" class="cls-1" d="M159.39,84.87l-1.08,6.71c-1.68.91-4.82,2.22-8.45,2.22-6.18,0-7.42-3.3-6.45-10.29l1.57-11.25h-3.04l.86-7.28,3.32-.16,1.25-5.29,9.37-3.52-1.19,8.81h6.45c-.22.91-.98,5.91-1.19,7.45h-6.28l-1.41,10.4c-.38,2.67-.16,3.64,1.68,3.64,1.36,0,3.36-.8,4.61-1.42h0ZM110.72,73.45c.7-4.83.32-9.21-5.04-9.21-3.9,0-8.13,3.3-11.11,8.81.65-4.55.27-8.81-5.04-8.81-4.01,0-8.34,3.47-11.32,9.21.76-3.75.6-8.01.38-8.92-3.09.51-5.8.8-9.59.91.11,2.61-.05,6.03-.54,9.26l-1.25,8.53c-.49,3.35-1.03,7.22-1.57,9.66h10.08c.05-1.48.43-3.81.7-5.86l.87-5.85c.7-3.81,3.74-8.3,6.07-8.3,1.35,0,1.3,1.31.92,3.75l-.98,6.59c-.49,3.35-1.03,7.22-1.57,9.66h10.19c.05-1.48.38-3.81.65-5.86l.87-5.85c.7-3.81,3.74-8.3,6.07-8.3,1.36,0,1.3,1.25,1.08,2.96l-2.43,17.05h9.29l3.27-19.44ZM189.4,76.49c0,9.56-6.75,17.51-15.7,17.51-8.01,0-12.13-5.47-12.13-12.61,0-9.5,6.81-17.45,15.7-17.45,8.12,0,12.13,5.47,12.13,12.55ZM171.33,81.2c0,3.47,1.14,5.23,3.09,5.23,2.6,0,4.66-4.21,4.66-9.32,0-3.52-1.14-5.23-3.03-5.23-2.6,0-4.71,4.15-4.71,9.32ZM65.15,76.69c0,9.43-6.66,17.28-15.49,17.28-7.91,0-11.97-5.4-11.97-12.45,0-9.38,6.72-17.22,15.5-17.22,8.02,0,11.97,5.4,11.97,12.39ZM47.44,81.2c0,3.47,1.14,5.23,3.09,5.23,2.6,0,4.66-4.21,4.66-9.32,0-3.52-1.14-5.23-3.03-5.23-2.6,0-4.71,4.15-4.71,9.32ZM37.85,64.98l-.16,5.17-13.49,14.67c5.63,0,9.21-.06,11.27-.17-.6,2.79-1.08,5.06-1.57,8.47-2.71-.23-6.94-.28-11.16-.28-4.71,0-8.83.06-12.14.28l.11-5.23,13.49-14.61c-5.91,0-8.07.06-10.51.11.54-2.61.92-5.51,1.3-8.41,4.28.17,5.96.23,11.54.23,5.15,0,8.07-.06,11.32-.23"/>
      <path id="path16" class="cls-1" d="M120.94,93.26c-4.81.59-7.98-1.32-8.94-5.67-.6-2.73.23-5.85,1.68-7.71,1.94-2.43,5.11-3.99,8.97-4.47,3.11-.38,5.73-.19,8.18.27l.1-.42c.07-.67.14-1.34.04-2.15-.25-2.06-1.88-3.29-5.89-2.79-2.71.33-5.28,1.31-7.28,2.42l-1.94-5.88c2.71-1.56,6.13-2.74,10.04-3.22,7.47-.92,12.72,1.47,13.39,6.94.18,1.46.2,3,.02,4.4-.96,6.77-1.57,11.86-1.84,15.28-.04.53-.04,1.43,0,2.72h-9.27c.2-.54.37-1.27.53-2.17.1-.6.18-1.35.23-2.26-1.96,2.69-4.65,4.28-8.01,4.7h0ZM123.84,88.06c3.41-.42,5.76-3.71,6.32-6.99l.09-.88c-1.46-.33-3.58-.58-5.64-.33-1.96.24-3.59,1.05-4.46,2.23-.66.84-.99,1.85-.85,3.06.22,1.81,2.22,3.19,4.53,2.9"/>
    </g>
  </g>
</svg>